<svg width="180" height="40" viewBox="0 0 180 40" fill="none" xmlns="http://www.w3.org/2000/svg">
<circle cx="20" cy="20" r="20" fill="#0091FB"/>
<path d="M16.0107 20.7109H19.7197V24.2617H21.4336V20.7109H25.1514V18.9971H21.4336V15.4463H19.7197V18.9971H16.0107V20.7109Z" fill="white"/>
<path d="M55.3604 28L54.3936 24.9238H49.9375L48.9707 28H46.2461L50.6494 15.3174H53.7695L58.1816 28H55.3604ZM52.1348 17.7432L50.5088 22.9375H53.8223L52.1963 17.7432H52.1348ZM62.5892 28.1494C61.4114 28.1494 60.4769 27.7129 59.7855 26.8398C59.0941 25.9668 58.7484 24.7773 58.7484 23.2715C58.7484 21.7773 59.0941 20.5967 59.7855 19.7295C60.4827 18.8623 61.4232 18.4287 62.6068 18.4287C63.2747 18.4287 63.8607 18.5898 64.3646 18.9121C64.8743 19.2344 65.2464 19.6621 65.4808 20.1953H65.5335V15.3174H68.0999V28H65.5687V26.3828H65.5247C65.2904 26.916 64.9124 27.3438 64.3909 27.666C63.8695 27.9883 63.2689 28.1494 62.5892 28.1494ZM63.4593 20.4854C62.8148 20.4854 62.305 20.7373 61.93 21.2412C61.5609 21.7451 61.3763 22.4277 61.3763 23.2891C61.3763 24.1562 61.5609 24.8389 61.93 25.3369C62.305 25.835 62.8148 26.084 63.4593 26.084C64.098 26.084 64.6048 25.835 64.9798 25.3369C65.3607 24.833 65.5511 24.1504 65.5511 23.2891C65.5511 22.4336 65.3607 21.7539 64.9798 21.25C64.6048 20.7402 64.098 20.4854 63.4593 20.4854ZM73.4918 28.1494C72.3141 28.1494 71.3795 27.7129 70.6881 26.8398C69.9967 25.9668 69.651 24.7773 69.651 23.2715C69.651 21.7773 69.9967 20.5967 70.6881 19.7295C71.3854 18.8623 72.3258 18.4287 73.5094 18.4287C74.1774 18.4287 74.7633 18.5898 75.2672 18.9121C75.777 19.2344 76.1491 19.6621 76.3834 20.1953H76.4362V15.3174H79.0026V28H76.4713V26.3828H76.4274C76.193 26.916 75.8151 27.3438 75.2936 27.666C74.7721 27.9883 74.1715 28.1494 73.4918 28.1494ZM74.362 20.4854C73.7174 20.4854 73.2077 20.7373 72.8327 21.2412C72.4635 21.7451 72.2789 22.4277 72.2789 23.2891C72.2789 24.1562 72.4635 24.8389 72.8327 25.3369C73.2077 25.835 73.7174 26.084 74.362 26.084C75.0006 26.084 75.5075 25.835 75.8825 25.3369C76.2633 24.833 76.4538 24.1504 76.4538 23.2891C76.4538 22.4336 76.2633 21.7539 75.8825 21.25C75.5075 20.7402 75.0006 20.4854 74.362 20.4854ZM84.8645 15.3174H90.0237C91.3304 15.3174 92.388 15.7158 93.1966 16.5127C94.011 17.3096 94.4182 18.3584 94.4182 19.6592C94.4182 20.9541 93.9993 22.0029 93.1614 22.8057C92.3235 23.6025 91.2337 24.001 89.8919 24.001H87.5188V28H84.8645V15.3174ZM87.5188 17.418V21.9268H89.3118C90.0735 21.9268 90.6653 21.7305 91.0872 21.3379C91.5091 20.9453 91.72 20.3887 91.72 19.668C91.72 18.9473 91.5091 18.3936 91.0872 18.0068C90.6712 17.6143 90.0823 17.418 89.3206 17.418H87.5188ZM103.37 26.9014C102.532 27.7686 101.395 28.2021 99.9596 28.2021C98.524 28.2021 97.3873 27.7656 96.5494 26.8926C95.7115 26.0195 95.2926 24.8154 95.2926 23.2803C95.2926 21.7627 95.7145 20.5674 96.5582 19.6943C97.4078 18.8154 98.5416 18.376 99.9596 18.376C101.383 18.376 102.517 18.8154 103.361 19.6943C104.205 20.5674 104.627 21.7627 104.627 23.2803C104.627 24.8213 104.208 26.0283 103.37 26.9014ZM99.9596 26.2422C100.592 26.2422 101.093 25.9844 101.463 25.4688C101.832 24.9531 102.016 24.2266 102.016 23.2891C102.016 22.3633 101.832 21.6396 101.463 21.1182C101.093 20.5967 100.592 20.3359 99.9596 20.3359C99.3268 20.3359 98.8229 20.5967 98.4479 21.1182C98.0787 21.6396 97.8941 22.3633 97.8941 23.2891C97.8941 24.2266 98.0787 24.9531 98.4479 25.4688C98.817 25.9844 99.3209 26.2422 99.9596 26.2422ZM106.178 28V18.5781H108.744V28H106.178ZM108.436 17.1543C108.173 17.4121 107.848 17.541 107.461 17.541C107.074 17.541 106.749 17.4121 106.485 17.1543C106.222 16.8965 106.09 16.583 106.09 16.2139C106.09 15.8389 106.222 15.5254 106.485 15.2734C106.749 15.0156 107.074 14.8867 107.461 14.8867C107.848 14.8867 108.173 15.0156 108.436 15.2734C108.7 15.5254 108.832 15.8389 108.832 16.2139C108.832 16.583 108.7 16.8965 108.436 17.1543ZM110.638 28V18.5781H113.116V20.2568H113.169C113.427 19.6592 113.802 19.2021 114.294 18.8857C114.792 18.5635 115.399 18.4023 116.114 18.4023C117.156 18.4023 117.962 18.7129 118.531 19.334C119.099 19.9551 119.383 20.8193 119.383 21.9268V28H116.817V22.4629C116.817 21.8418 116.67 21.3643 116.377 21.0303C116.084 20.6963 115.654 20.5293 115.085 20.5293C114.517 20.5293 114.06 20.7197 113.714 21.1006C113.374 21.4814 113.204 21.9795 113.204 22.5947V28H110.638ZM121.875 16.4072H124.441V18.5781H126.181V20.5117H124.441V25.0205C124.441 25.7295 124.81 26.084 125.548 26.084C125.789 26.084 125.997 26.0693 126.172 26.04V27.9297C125.874 28 125.466 28.0352 124.951 28.0352C123.843 28.0352 123.052 27.8359 122.578 27.4375C122.109 27.0391 121.875 26.3799 121.875 25.46V20.5117H120.547V18.5781H121.875V16.4072Z" fill="#0091FB"/>
</svg>
