<svg width="180" height="40" viewBox="0 0 180 40" fill="none" xmlns="http://www.w3.org/2000/svg">
<circle cx="20" cy="20" r="20" fill="#FB004B"/>
<path d="M18.1699 20.7109H23.8213V18.9971H18.1699V20.7109Z" fill="white"/>
<path d="M47.0547 15.3174H51.8975C53.8076 15.3174 55.293 15.8652 56.3535 16.9609C57.4141 18.0566 57.9443 19.6064 57.9443 21.6104C57.9443 23.6201 57.4111 25.1875 56.3447 26.3125C55.2842 27.4375 53.8018 28 51.8975 28H47.0547V15.3174ZM49.709 17.5059V25.8027H51.5811C52.7705 25.8027 53.6758 25.4482 54.2969 24.7393C54.9238 24.0244 55.2373 22.9844 55.2373 21.6191C55.2373 20.2949 54.9209 19.2783 54.2881 18.5693C53.6553 17.8604 52.7529 17.5059 51.5811 17.5059H49.709ZM63.846 20.2744C63.2894 20.2744 62.8236 20.4648 62.4486 20.8457C62.0794 21.2266 61.8714 21.7129 61.8245 22.3047H65.8236C65.7943 21.7012 65.598 21.2119 65.2347 20.8369C64.8773 20.4619 64.4144 20.2744 63.846 20.2744ZM65.8587 25.1172H68.2142C68.0736 26.043 67.6107 26.79 66.8255 27.3584C66.0462 27.9209 65.0765 28.2021 63.9163 28.2021C62.4691 28.2021 61.3323 27.7686 60.5062 26.9014C59.6859 26.0342 59.2757 24.8447 59.2757 23.333C59.2757 21.8271 59.6859 20.626 60.5062 19.7295C61.3265 18.8271 62.431 18.376 63.8196 18.376C65.1849 18.376 66.2718 18.8037 67.0804 19.6592C67.889 20.5146 68.2933 21.6602 68.2933 23.0957V23.8779H61.7982V24.0361C61.7982 24.71 61.9945 25.2578 62.387 25.6797C62.7855 26.0957 63.3099 26.3037 63.9603 26.3037C64.429 26.3037 64.8333 26.1982 65.1732 25.9873C65.513 25.7705 65.7415 25.4805 65.8587 25.1172ZM69.862 28V15.3174H72.4284V28H69.862ZM78.5673 20.2744C78.0107 20.2744 77.5449 20.4648 77.1699 20.8457C76.8007 21.2266 76.5927 21.7129 76.5459 22.3047H80.5449C80.5156 21.7012 80.3193 21.2119 79.956 20.8369C79.5986 20.4619 79.1357 20.2744 78.5673 20.2744ZM80.58 25.1172H82.9355C82.7949 26.043 82.332 26.79 81.5468 27.3584C80.7675 27.9209 79.7978 28.2021 78.6377 28.2021C77.1904 28.2021 76.0537 27.7686 75.2275 26.9014C74.4072 26.0342 73.997 24.8447 73.997 23.333C73.997 21.8271 74.4072 20.626 75.2275 19.7295C76.0478 18.8271 77.1523 18.376 78.541 18.376C79.9062 18.376 80.9931 18.8037 81.8017 19.6592C82.6103 20.5146 83.0146 21.6602 83.0146 23.0957V23.8779H76.5195V24.0361C76.5195 24.71 76.7158 25.2578 77.1084 25.6797C77.5068 26.0957 78.0312 26.3037 78.6816 26.3037C79.1504 26.3037 79.5546 26.1982 79.8945 25.9873C80.2343 25.7705 80.4629 25.4805 80.58 25.1172ZM85.2073 16.4072H87.7737V18.5781H89.5139V20.5117H87.7737V25.0205C87.7737 25.7295 88.1429 26.084 88.8811 26.084C89.1214 26.084 89.3294 26.0693 89.5052 26.04V27.9297C89.2063 28 88.7991 28.0352 88.2835 28.0352C87.1761 28.0352 86.385 27.8359 85.9104 27.4375C85.4417 27.0391 85.2073 26.3799 85.2073 25.46V20.5117H83.8802V18.5781H85.2073V16.4072ZM95.1871 20.2744C94.6305 20.2744 94.1646 20.4648 93.7896 20.8457C93.4205 21.2266 93.2125 21.7129 93.1656 22.3047H97.1646C97.1354 21.7012 96.9391 21.2119 96.5758 20.8369C96.2184 20.4619 95.7555 20.2744 95.1871 20.2744ZM97.1998 25.1172H99.5553C99.4146 26.043 98.9518 26.79 98.1666 27.3584C97.3873 27.9209 96.4176 28.2021 95.2574 28.2021C93.8102 28.2021 92.6734 27.7686 91.8473 26.9014C91.027 26.0342 90.6168 24.8447 90.6168 23.333C90.6168 21.8271 91.027 20.626 91.8473 19.7295C92.6676 18.8271 93.7721 18.376 95.1607 18.376C96.526 18.376 97.6129 18.8037 98.4215 19.6592C99.2301 20.5146 99.6344 21.6602 99.6344 23.0957V23.8779H93.1393V24.0361C93.1393 24.71 93.3355 25.2578 93.7281 25.6797C94.1266 26.0957 94.651 26.3037 95.3014 26.3037C95.7701 26.3037 96.1744 26.1982 96.5143 25.9873C96.8541 25.7705 97.0826 25.4805 97.1998 25.1172ZM105.11 15.3174H110.269C111.575 15.3174 112.633 15.7158 113.442 16.5127C114.256 17.3096 114.663 18.3584 114.663 19.6592C114.663 20.9541 114.244 22.0029 113.406 22.8057C112.569 23.6025 111.479 24.001 110.137 24.001H107.764V28H105.11V15.3174ZM107.764 17.418V21.9268H109.557C110.319 21.9268 110.91 21.7305 111.332 21.3379C111.754 20.9453 111.965 20.3887 111.965 19.668C111.965 18.9473 111.754 18.3936 111.332 18.0068C110.916 17.6143 110.327 17.418 109.566 17.418H107.764ZM123.615 26.9014C122.777 27.7686 121.64 28.2021 120.205 28.2021C118.769 28.2021 117.632 27.7656 116.794 26.8926C115.957 26.0195 115.538 24.8154 115.538 23.2803C115.538 21.7627 115.96 20.5674 116.803 19.6943C117.653 18.8154 118.787 18.376 120.205 18.376C121.628 18.376 122.762 18.8154 123.606 19.6943C124.45 20.5674 124.872 21.7627 124.872 23.2803C124.872 24.8213 124.453 26.0283 123.615 26.9014ZM120.205 26.2422C120.837 26.2422 121.338 25.9844 121.708 25.4688C122.077 24.9531 122.261 24.2266 122.261 23.2891C122.261 22.3633 122.077 21.6396 121.708 21.1182C121.338 20.5967 120.837 20.3359 120.205 20.3359C119.572 20.3359 119.068 20.5967 118.693 21.1182C118.324 21.6396 118.139 22.3633 118.139 23.2891C118.139 24.2266 118.324 24.9531 118.693 25.4688C119.062 25.9844 119.566 26.2422 120.205 26.2422ZM126.423 28V18.5781H128.989V28H126.423ZM128.682 17.1543C128.418 17.4121 128.093 17.541 127.706 17.541C127.319 17.541 126.994 17.4121 126.73 17.1543C126.467 16.8965 126.335 16.583 126.335 16.2139C126.335 15.8389 126.467 15.5254 126.73 15.2734C126.994 15.0156 127.319 14.8867 127.706 14.8867C128.093 14.8867 128.418 15.0156 128.682 15.2734C128.945 15.5254 129.077 15.8389 129.077 16.2139C129.077 16.583 128.945 16.8965 128.682 17.1543ZM130.883 28V18.5781H133.362V20.2568H133.414C133.672 19.6592 134.047 19.2021 134.539 18.8857C135.037 18.5635 135.644 18.4023 136.359 18.4023C137.402 18.4023 138.207 18.7129 138.776 19.334C139.344 19.9551 139.628 20.8193 139.628 21.9268V28H137.062V22.4629C137.062 21.8418 136.915 21.3643 136.622 21.0303C136.329 20.6963 135.899 20.5293 135.33 20.5293C134.762 20.5293 134.305 20.7197 133.959 21.1006C133.619 21.4814 133.449 21.9795 133.449 22.5947V28H130.883ZM142.12 16.4072H144.686V18.5781H146.426V20.5117H144.686V25.0205C144.686 25.7295 145.055 26.084 145.793 26.084C146.034 26.084 146.242 26.0693 146.418 26.04V27.9297C146.119 28 145.711 28.0352 145.196 28.0352C144.088 28.0352 143.297 27.8359 142.823 27.4375C142.354 27.0391 142.12 26.3799 142.12 25.46V20.5117H140.793V18.5781H142.12V16.4072Z" fill="#FB004B"/>
</svg>
