<svg width="16" height="16" viewBox="0 0 16 16" fill="none" xmlns="http://www.w3.org/2000/svg">
<path fill-rule="evenodd" clip-rule="evenodd" d="M8.58917 4.0775C8.43289 3.92127 8.22097 3.83351 8 3.83351C7.77903 3.83351 7.56711 3.92127 7.41083 4.0775L4.0775 7.41083C3.92127 7.56711 3.83351 7.77903 3.83351 8C3.83351 8.22097 3.92127 8.43289 4.0775 8.58917L7.41083 11.9225C7.568 12.0743 7.7785 12.1583 7.997 12.1564C8.2155 12.1545 8.42451 12.0669 8.57901 11.9123C8.73352 11.7578 8.82116 11.5488 8.82306 11.3303C8.82496 11.1118 8.74096 10.9013 8.58917 10.7442L6.67833 8.83333H14.6667C14.8877 8.83333 15.0996 8.74554 15.2559 8.58926C15.4122 8.43297 15.5 8.22101 15.5 8C15.5 7.77899 15.4122 7.56702 15.2559 7.41074C15.0996 7.25446 14.8877 7.16667 14.6667 7.16667H6.67833L8.58917 5.25583C8.74539 5.09956 8.83315 4.88764 8.83315 4.66667C8.83315 4.4457 8.74539 4.23377 8.58917 4.0775ZM3 0.5C2.33696 0.5 1.70107 0.763392 1.23223 1.23223C0.763392 1.70107 0.5 2.33696 0.5 3V13C0.5 13.663 0.763392 14.2989 1.23223 14.7678C1.70107 15.2366 2.33696 15.5 3 15.5H9.66667C10.3297 15.5 10.9656 15.2366 11.4344 14.7678C11.9033 14.2989 12.1667 13.663 12.1667 13V3C12.1667 2.33696 11.9033 1.70107 11.4344 1.23223C10.9656 0.763392 10.3297 0.5 9.66667 0.5H3Z" fill="black"/>
</svg>
