<svg width="17" height="16" viewBox="0 0 17 16" fill="none" xmlns="http://www.w3.org/2000/svg">
<path d="M1.73823 2.05447C1.86658 1.48965 2.18305 0.985217 2.63574 0.623881C3.08843 0.262545 3.65047 0.0657598 4.22969 0.0657959H12.2079C12.7871 0.0657598 13.3492 0.262545 13.8018 0.623881C14.2545 0.985217 14.571 1.48965 14.6994 2.05447L16.3253 9.20798C16.4103 9.58207 16.4099 9.97049 16.3243 10.3444C16.2387 10.7184 16.0699 11.0682 15.8306 11.368C15.5913 11.6679 15.2875 11.9099 14.9418 12.0763C14.5961 12.2426 14.2174 12.329 13.8338 12.329H7.19737V6.70834C7.19737 6.03076 6.92821 5.38093 6.44908 4.90181C5.96996 4.42268 5.32013 4.15352 4.64255 4.15352H1.57676C1.46844 4.15352 1.36216 4.16067 1.2569 4.17395L1.73823 2.05447Z" fill="black"/>
<path d="M7.1974 13.8619C7.1974 14.0366 7.18002 14.2073 7.1463 14.3728H12.818C12.9535 14.3728 13.0835 14.319 13.1793 14.2232C13.2751 14.1273 13.329 13.9974 13.329 13.8619C13.329 13.7263 13.2751 13.5964 13.1793 13.5005C13.0835 13.4047 12.9535 13.3509 12.818 13.3509H7.1974V13.8619Z" fill="black"/>
<path d="M3.10964 9.26316C3.38067 9.26316 3.6406 9.15549 3.83225 8.96384C4.0239 8.77219 4.13157 8.51226 4.13157 8.24123C4.13157 7.9702 4.0239 7.71026 3.83225 7.51862C3.6406 7.32697 3.38067 7.2193 3.10964 7.2193C2.8386 7.2193 2.57867 7.32697 2.38702 7.51862C2.19538 7.71026 2.08771 7.9702 2.08771 8.24123C2.08771 8.51226 2.19538 8.77219 2.38702 8.96384C2.57867 9.15549 2.8386 9.26316 3.10964 9.26316Z" fill="black"/>
<path d="M0.0438843 6.70837C0.0438843 6.30182 0.205385 5.91192 0.492859 5.62445C0.780332 5.33698 1.17023 5.17548 1.57678 5.17548H4.64257C5.04912 5.17548 5.43902 5.33698 5.72649 5.62445C6.01396 5.91192 6.17546 6.30182 6.17546 6.70837V13.8619C6.17546 14.2684 6.01396 14.6583 5.72649 14.9458C5.43902 15.2333 5.04912 15.3948 4.64257 15.3948H1.57678C1.17023 15.3948 0.780332 15.2333 0.492859 14.9458C0.205385 14.6583 0.0438843 14.2684 0.0438843 13.8619V6.70837ZM1.57678 6.19741C1.44126 6.19741 1.3113 6.25124 1.21547 6.34706C1.11965 6.44289 1.06581 6.57285 1.06581 6.70837V13.8619C1.06581 13.9974 1.11965 14.1274 1.21547 14.2232C1.3113 14.319 1.44126 14.3728 1.57678 14.3728H4.64257C4.77808 14.3728 4.90805 14.319 5.00388 14.2232C5.0997 14.1274 5.15353 13.9974 5.15353 13.8619V6.70837C5.15353 6.57285 5.0997 6.44289 5.00388 6.34706C4.90805 6.25124 4.77808 6.19741 4.64257 6.19741H1.57678Z" fill="black"/>
</svg>
