<svg width="18" height="17" viewBox="0 0 18 17" fill="none" xmlns="http://www.w3.org/2000/svg">
<path d="M11.9596 6.41107C12.6647 6.41107 13.237 6.98335 13.237 7.68848V12.6149C13.237 13.6799 12.8139 14.7012 12.0609 15.4543C11.3079 16.2073 10.2865 16.6304 9.22155 16.6304C8.15659 16.6304 7.13524 16.2073 6.38219 15.4543C5.62915 14.7012 5.2061 13.6799 5.2061 12.6149V7.68848C5.2061 6.98335 5.77765 6.41107 6.48351 6.41107H11.9596ZM1.73737 6.41107L4.93601 6.40961C4.68053 6.71838 4.51556 7.10452 4.48272 7.52789L4.47542 7.68848V12.6149C4.47542 13.4419 4.68783 14.2201 5.05938 14.8975C4.5593 15.1157 4.01275 15.2059 3.46908 15.16C2.92541 15.1141 2.40172 14.9335 1.9453 14.6346C1.48888 14.3356 1.11409 13.9277 0.854775 13.4477C0.595456 12.9676 0.459768 12.4306 0.459961 11.885V7.68848C0.460691 6.98335 1.03224 6.41107 1.7381 6.41107H1.73737ZM13.5071 6.40961L16.7013 6.41107C17.4065 6.41107 17.9788 6.98335 17.9788 7.68848V11.8857C17.979 12.4311 17.8434 12.968 17.5842 13.4478C17.3251 13.9277 16.9505 14.3355 16.4943 14.6345C16.0382 14.9334 15.5147 15.114 14.9713 15.1601C14.4279 15.2061 13.8815 15.1161 13.3815 14.8982L13.4224 14.8237C13.7356 14.2303 13.9261 13.5617 13.9611 12.8529L13.967 12.6149V7.68848C13.967 7.20234 13.794 6.75707 13.5071 6.40961ZM9.21936 0.571472C9.55486 0.571472 9.88708 0.637555 10.197 0.765947C10.507 0.894339 10.7887 1.08253 11.0259 1.31976C11.2631 1.557 11.4513 1.83864 11.5797 2.14861C11.7081 2.45857 11.7742 2.79079 11.7742 3.1263C11.7742 3.4618 11.7081 3.79402 11.5797 4.10399C11.4513 4.41395 11.2631 4.69559 11.0259 4.93283C10.7887 5.17007 10.507 5.35826 10.197 5.48665C9.88708 5.61504 9.55486 5.68112 9.21936 5.68112C8.54178 5.68112 7.89195 5.41195 7.41283 4.93283C6.9337 4.45371 6.66454 3.80388 6.66454 3.1263C6.66454 2.44872 6.9337 1.79889 7.41283 1.31976C7.89195 0.840641 8.54178 0.571472 9.21936 0.571472ZM15.0611 1.30142C15.3487 1.30142 15.6335 1.35806 15.8992 1.46811C16.1649 1.57816 16.4063 1.73947 16.6096 1.94281C16.813 2.14616 16.9743 2.38757 17.0843 2.65325C17.1944 2.91894 17.251 3.2037 17.251 3.49127C17.251 3.77885 17.1944 4.06361 17.0843 4.32929C16.9743 4.59498 16.813 4.83638 16.6096 5.03973C16.4063 5.24308 16.1649 5.40438 15.8992 5.51443C15.6335 5.62448 15.3487 5.68112 15.0611 5.68112C14.4804 5.68112 13.9234 5.45041 13.5127 5.03973C13.102 4.62905 12.8713 4.07206 12.8713 3.49127C12.8713 2.91049 13.102 2.35349 13.5127 1.94281C13.9234 1.53214 14.4804 1.30142 15.0611 1.30142ZM3.37757 1.30142C3.66515 1.30142 3.94991 1.35806 4.21559 1.46811C4.48128 1.57816 4.72268 1.73947 4.92603 1.94281C5.12937 2.14616 5.29068 2.38757 5.40073 2.65325C5.51078 2.91894 5.56742 3.2037 5.56742 3.49127C5.56742 3.77885 5.51078 4.06361 5.40073 4.32929C5.29068 4.59498 5.12937 4.83638 4.92603 5.03973C4.72268 5.24308 4.48128 5.40438 4.21559 5.51443C3.94991 5.62448 3.66515 5.68112 3.37757 5.68112C2.79679 5.68112 2.23979 5.45041 1.82911 5.03973C1.41844 4.62905 1.18772 4.07206 1.18772 3.49127C1.18772 2.91049 1.41844 2.35349 1.82911 1.94281C2.23979 1.53214 2.79679 1.30142 3.37757 1.30142Z" fill="#232323"/>
</svg>
