<svg width="16" height="18" viewBox="0 0 16 18" fill="none" xmlns="http://www.w3.org/2000/svg">
<path d="M3 17.3334H13.8333C14.2754 17.3334 14.6993 17.1578 15.0118 16.8452C15.3244 16.5326 15.5 16.1087 15.5 15.6667V2.33335C15.5 1.89133 15.3244 1.4674 15.0118 1.15484C14.6993 0.842282 14.2754 0.666687 13.8333 0.666687H2.16667C1.72464 0.666687 1.30072 0.842282 0.988155 1.15484C0.675595 1.4674 0.5 1.89133 0.5 2.33335V15.6667C0.5 16.1087 0.675595 16.5326 0.988155 16.8452C1.30072 17.1578 1.72464 17.3334 2.16667 17.3334H3ZM8 3.16585C9.3725 3.16585 10.5 4.29169 10.5 5.66585C10.5 7.03919 9.3725 8.16669 8 8.16669C6.6275 8.16669 5.5 7.03919 5.5 5.66585C5.5 4.29169 6.6275 3.16585 8 3.16585ZM3 13.375C3 11.5259 5.25417 9.62502 8 9.62502C10.7458 9.62502 13 11.5259 13 13.375V14H3V13.375Z" fill="black"/>
</svg>
