<svg width="10" height="10" viewBox="0 0 10 10" fill="none" xmlns="http://www.w3.org/2000/svg">
<path d="M4.81798 9.87718C6.03763 9.87718 7.20732 9.39268 8.06974 8.53025C8.93217 7.66783 9.41667 6.49814 9.41667 5.27849C9.41667 4.05885 8.93217 2.88915 8.06974 2.02673C7.20732 1.16431 6.03763 0.67981 4.81798 0.67981C3.59834 0.67981 2.42864 1.16431 1.56622 2.02673C0.703803 2.88915 0.219299 4.05885 0.219299 5.27849C0.219299 6.49814 0.703803 7.66783 1.56622 8.53025C2.42864 9.39268 3.59834 9.87718 4.81798 9.87718ZM4.81798 2.72367C4.9535 2.72367 5.08347 2.7775 5.17929 2.87333C5.27512 2.96915 5.32895 3.09912 5.32895 3.23463V4.76753H6.86184C6.99736 4.76753 7.12733 4.82136 7.22315 4.91719C7.31897 5.01301 7.37281 5.14298 7.37281 5.27849C7.37281 5.41401 7.31897 5.54398 7.22315 5.6398C7.12733 5.73563 6.99736 5.78946 6.86184 5.78946H5.32895V7.32235C5.32895 7.45787 5.27512 7.58784 5.17929 7.68366C5.08347 7.77949 4.9535 7.83332 4.81798 7.83332C4.68247 7.83332 4.5525 7.77949 4.45668 7.68366C4.36085 7.58784 4.30702 7.45787 4.30702 7.32235V5.78946H2.77412C2.63861 5.78946 2.50864 5.73563 2.41282 5.6398C2.31699 5.54398 2.26316 5.41401 2.26316 5.27849C2.26316 5.14298 2.31699 5.01301 2.41282 4.91719C2.50864 4.82136 2.63861 4.76753 2.77412 4.76753H4.30702V3.23463C4.30702 3.09912 4.36085 2.96915 4.45668 2.87333C4.5525 2.7775 4.68247 2.72367 4.81798 2.72367Z" fill="#232323"/>
</svg>
