<svg width="161" height="54" viewBox="0 0 161 54" fill="none" xmlns="http://www.w3.org/2000/svg">
<path d="M147.549 0.541677H13.2662C12.7767 0.541677 12.2931 0.541677 11.8049 0.544347C11.3962 0.547017 10.9908 0.554772 10.5782 0.561299C9.68194 0.571847 8.78773 0.650701 7.9034 0.797175C7.02032 0.946839 6.16489 1.229 5.36607 1.63411C4.56822 2.04265 3.8392 2.5735 3.20546 3.20741C2.56839 3.83953 2.03735 4.57019 1.63275 5.37127C1.22703 6.17076 0.945703 7.02749 0.798485 7.91186C0.649867 8.79512 0.569895 9.68856 0.559285 10.5842C0.546898 10.9934 0.54559 11.404 0.539062 11.8134V42.6668C0.54559 43.0812 0.546898 43.4827 0.559285 43.8973C0.569898 44.7929 0.64987 45.6863 0.798485 46.5695C0.945296 47.4544 1.22664 48.3116 1.63275 49.1114C2.03717 49.9099 2.56828 50.6376 3.20546 51.2662C3.8368 51.9029 4.56629 52.4341 5.36607 52.8396C6.16489 53.2457 7.02022 53.5296 7.9034 53.6816C8.78788 53.8269 9.68199 53.9057 10.5782 53.9176C10.9908 53.9266 11.3962 53.9318 11.8049 53.9318C12.2931 53.9345 12.7767 53.9345 13.2662 53.9345H147.549C148.029 53.9345 148.516 53.9345 148.996 53.9318C149.403 53.9318 149.82 53.9266 150.227 53.9176C151.121 53.9064 152.014 53.8275 152.896 53.6816C153.782 53.5285 154.641 53.2448 155.443 52.8396C156.243 52.4339 156.971 51.9027 157.602 51.2662C158.238 50.6351 158.77 49.908 159.179 49.1114C159.582 48.311 159.861 47.4539 160.006 46.5695C160.155 45.6862 160.237 44.793 160.254 43.8973C160.259 43.4827 160.259 43.0812 160.259 42.6668C160.269 42.1818 160.269 41.6995 160.269 41.2067V13.2707C160.269 12.7819 160.269 12.297 160.259 11.8134C160.259 11.404 160.259 10.9934 160.254 10.5841C160.237 9.68843 160.155 8.79519 160.006 7.91181C159.861 7.02795 159.582 6.17129 159.179 5.37122C158.355 3.76553 157.049 2.45851 155.443 1.63399C154.641 1.22987 153.782 0.947784 152.896 0.797055C152.014 0.649935 151.121 0.571054 150.227 0.561112C149.82 0.554598 149.403 0.546776 148.996 0.544174C148.516 0.541504 148.029 0.541504 147.549 0.541504V0.541677Z" fill="black"/>
<path d="M11.8114 52.7664C11.4047 52.7664 11.0079 52.7612 10.6044 52.7521C9.76848 52.7412 8.93454 52.6684 8.1094 52.5344C7.33999 52.4019 6.59465 52.1554 5.89795 51.803C5.20763 51.4536 4.57801 50.9954 4.0332 50.446C3.48051 49.9031 3.02036 49.2735 2.671 48.582C2.3178 47.886 2.07336 47.14 1.9462 46.3699C1.80888 45.5425 1.73458 44.7058 1.72395 43.8671C1.71549 43.5856 1.70441 42.6483 1.70441 42.6483V11.8132C1.70441 11.8132 1.71621 10.8903 1.72402 10.6191C1.73419 9.78178 1.80806 8.94641 1.94497 8.12026C2.07236 7.34809 2.31699 6.59992 2.67039 5.90165C3.01846 5.21063 3.47605 4.58049 4.02542 4.03564C4.57417 3.48561 5.2058 3.02508 5.89729 2.67082C6.59239 2.31961 7.33633 2.07486 8.10418 1.94476C8.93203 1.80937 9.76886 1.73616 10.6076 1.72577L11.8121 1.70947H148.99L150.208 1.72642C151.04 1.7363 151.869 1.80885 152.689 1.94345C153.465 2.07518 154.216 2.32164 154.919 2.67473C156.305 3.38866 157.432 4.51815 158.143 5.90491C158.491 6.59836 158.732 7.34042 158.857 8.10592C158.996 8.93885 159.074 9.78078 159.089 10.625C159.093 11.003 159.093 11.4091 159.093 11.8132C159.104 12.3137 159.104 12.7902 159.104 13.2705V41.2066C159.104 41.6915 159.104 42.1647 159.093 42.6418C159.093 43.0758 159.093 43.4735 159.088 43.8827C159.073 44.7119 158.996 45.5388 158.86 46.3568C158.735 47.1324 158.492 47.8843 158.139 48.586C157.787 49.27 157.33 49.8942 156.784 50.4356C156.238 50.988 155.608 51.4488 154.916 51.8005C154.215 52.1555 153.464 52.4029 152.689 52.5344C151.864 52.6691 151.03 52.7419 150.194 52.7521C149.803 52.7612 149.394 52.7664 148.996 52.7664L147.549 52.769L11.8114 52.7664Z" fill="white"/>
<path d="M33.9058 27.0904C33.9207 25.9318 34.2285 24.7959 34.8004 23.7882C35.3723 22.7805 36.1898 21.9339 37.1769 21.327C36.5498 20.4315 35.7226 19.6945 34.7609 19.1746C33.7992 18.6547 32.7295 18.3662 31.6369 18.332C29.3059 18.0874 27.0462 19.7268 25.8584 19.7268C24.6476 19.7268 22.8189 18.3563 20.8495 18.3968C19.5757 18.438 18.3343 18.8084 17.2462 19.472C16.1582 20.1356 15.2605 21.0697 14.6408 22.1833C11.9563 26.8312 13.9587 33.662 16.5302 37.419C17.8169 39.2586 19.3205 41.3136 21.2881 41.2408C23.2134 41.1609 23.9325 40.013 26.2565 40.013C28.559 40.013 29.2336 41.2408 31.2411 41.1944C33.3071 41.1609 34.6087 39.3466 35.8502 37.4895C36.7747 36.1786 37.486 34.7298 37.9579 33.1968C36.7576 32.6892 35.7333 31.8394 35.0128 30.7535C34.2922 29.6676 33.9072 28.3936 33.9058 27.0904Z" fill="black"/>
<path d="M30.1136 15.8609C31.24 14.5086 31.795 12.7705 31.6606 11.0156C29.9396 11.1964 28.3499 12.0189 27.2083 13.3193C26.6501 13.9546 26.2225 14.6936 25.9501 15.4942C25.6777 16.2948 25.5658 17.1413 25.6207 17.9852C26.4815 17.994 27.3331 17.8074 28.1113 17.4395C28.8896 17.0715 29.5742 16.5318 30.1136 15.8609Z" fill="black"/>
<path d="M57.0048 36.7674H50.6865L49.1692 41.2477H46.493L52.4776 24.6719H55.258L61.2425 41.2477H58.5208L57.0048 36.7674ZM51.3409 34.7H56.3491L53.8802 27.4289H53.8111L51.3409 34.7Z" fill="black"/>
<path d="M74.1685 35.2065C74.1685 38.962 72.1585 41.3749 69.1252 41.3749C68.3568 41.4151 67.5926 41.2381 66.9201 40.8641C66.2476 40.4902 65.6941 39.9344 65.3228 39.2605H65.2654V45.2464H62.7847V29.1633H65.1858V31.1734H65.2315C65.6198 30.5027 66.1828 29.9498 66.8604 29.5736C67.538 29.1974 68.3049 29.0119 69.0795 29.0369C72.1468 29.0369 74.1685 31.4615 74.1685 35.2065ZM71.6188 35.2065C71.6188 32.7598 70.3544 31.1512 68.4252 31.1512C66.5298 31.1512 65.255 32.7937 65.255 35.2065C65.255 37.6416 66.5298 39.2723 68.4252 39.2723C70.3544 39.2723 71.6188 37.6754 71.6188 35.2065H71.6188Z" fill="black"/>
<path d="M87.4688 35.2065C87.4688 38.962 85.4581 41.3749 82.4248 41.3749C81.6564 41.4151 80.8922 41.2381 80.2197 40.8641C79.5473 40.4902 78.9937 39.9344 78.6224 39.2605H78.565V45.2464H76.0844V29.1633H78.4855V31.1734H78.5311C78.9195 30.5027 79.4824 29.9498 80.16 29.5736C80.8376 29.1974 81.6045 29.0119 82.3791 29.0369C85.4464 29.0369 87.4688 31.4615 87.4688 35.2065ZM84.9185 35.2065C84.9185 32.7598 83.654 31.1512 81.7248 31.1512C79.8295 31.1512 78.5546 32.7937 78.5546 35.2065C78.5546 37.6416 79.8295 39.2723 81.7248 39.2723C83.654 39.2723 84.9185 37.6754 84.9185 35.2065Z" fill="black"/>
<path d="M96.2588 36.6297C96.4426 38.2735 98.0395 39.3528 100.222 39.3528C102.312 39.3528 103.817 38.2735 103.817 36.7913C103.817 35.5047 102.909 34.7344 100.761 34.2064L98.613 33.6889C95.5693 32.9537 94.1562 31.5303 94.1562 29.2204C94.1562 26.3604 96.6486 24.396 100.186 24.396C103.69 24.396 106.091 26.3604 106.172 29.2204H103.668C103.518 27.5662 102.151 26.5677 100.152 26.5677C98.1542 26.5677 96.7868 27.5779 96.7868 29.0483C96.7868 30.2202 97.6601 30.9098 99.7966 31.4377L101.623 31.8861C105.024 32.6904 106.436 34.0565 106.436 36.481C106.436 39.5821 103.967 41.5244 100.038 41.5244C96.3617 41.5244 93.8798 39.6278 93.7195 36.6296L96.2588 36.6297Z" fill="black"/>
<path d="M111.792 26.3037V29.1637H114.09V31.1281H111.792V37.7905C111.792 38.8255 112.252 39.3078 113.262 39.3078C113.535 39.303 113.807 39.2839 114.078 39.2504V41.2031C113.624 41.288 113.162 41.3264 112.7 41.3178C110.254 41.3178 109.299 40.3988 109.299 38.055V31.1281H107.542V29.1637H109.299V26.3037H111.792Z" fill="black"/>
<path d="M115.419 35.2064C115.419 31.404 117.659 29.0146 121.151 29.0146C124.655 29.0146 126.884 31.404 126.884 35.2064C126.884 39.0193 124.666 41.3982 121.151 41.3982C117.636 41.3982 115.419 39.0193 115.419 35.2064ZM124.356 35.2064C124.356 32.5981 123.161 31.0586 121.151 31.0586C119.141 31.0586 117.945 32.6098 117.945 35.2064C117.945 37.8252 119.141 39.353 121.151 39.353C123.161 39.353 124.356 37.8252 124.356 35.2064H124.356Z" fill="black"/>
<path d="M128.929 29.1632H131.295V31.2202H131.352C131.512 30.5778 131.889 30.01 132.418 29.6124C132.948 29.2148 133.598 29.0115 134.259 29.0368C134.545 29.0358 134.83 29.0668 135.109 29.1293V31.4496C134.748 31.3393 134.372 31.2887 133.995 31.2997C133.634 31.2851 133.275 31.3486 132.941 31.486C132.608 31.6233 132.308 31.8312 132.063 32.0953C131.817 32.3595 131.631 32.6736 131.519 33.0163C131.406 33.3589 131.369 33.7218 131.41 34.0801V41.2483H128.929L128.929 29.1632Z" fill="black"/>
<path d="M146.546 37.6988C146.213 39.8927 144.076 41.3982 141.343 41.3982C137.827 41.3982 135.645 39.0427 135.645 35.2638C135.645 31.4731 137.839 29.0146 141.238 29.0146C144.582 29.0146 146.685 31.3115 146.685 34.9757V35.8256H138.149V35.9755C138.11 36.4203 138.165 36.8683 138.312 37.2899C138.459 37.7115 138.694 38.097 139.002 38.4208C139.309 38.7445 139.682 38.9991 140.096 39.1677C140.509 39.3363 140.954 39.415 141.4 39.3986C141.986 39.4535 142.574 39.3178 143.077 39.0115C143.58 38.7052 143.971 38.2448 144.191 37.6988L146.546 37.6988ZM138.161 34.0919H144.203C144.225 33.692 144.164 33.2918 144.025 32.9165C143.885 32.5411 143.669 32.1987 143.391 31.9106C143.112 31.6226 142.777 31.3953 142.407 31.2428C142.037 31.0904 141.639 31.0161 141.238 31.0247C140.834 31.0223 140.434 31.0999 140.06 31.2531C139.686 31.4062 139.347 31.6319 139.06 31.9171C138.774 32.2022 138.548 32.5412 138.393 32.9145C138.239 33.2878 138.16 33.688 138.161 34.0919V34.0919Z" fill="black"/>
<path d="M51.0301 12.196C51.5502 12.1587 52.072 12.2373 52.558 12.4261C53.0441 12.6149 53.4821 12.9092 53.8407 13.2878C54.1992 13.6664 54.4692 14.1198 54.6312 14.6154C54.7933 15.1109 54.8433 15.6363 54.7778 16.1536C54.7778 18.6981 53.4025 20.1607 51.0301 20.1607H48.1532V12.196H51.0301ZM49.3902 19.0343H50.8919C51.2635 19.0565 51.6354 18.9956 51.9805 18.856C52.3256 18.7163 52.6353 18.5015 52.8869 18.2271C53.1385 17.9527 53.3257 17.6257 53.435 17.2698C53.5443 16.9139 53.5728 16.5381 53.5185 16.1698C53.5689 15.803 53.5374 15.4295 53.4265 15.0762C53.3155 14.723 53.1278 14.3986 52.8768 14.1264C52.6258 13.8542 52.3176 13.6409 51.9745 13.5017C51.6313 13.3626 51.2616 13.3011 50.8919 13.3216H49.3902V19.0343Z" fill="black"/>
<path d="M56.1748 17.1523C56.137 16.7573 56.1822 16.3588 56.3074 15.9823C56.4327 15.6058 56.6353 15.2596 56.9022 14.966C57.169 14.6723 57.4944 14.4377 57.8572 14.2772C58.2201 14.1166 58.6125 14.0337 59.0093 14.0337C59.4061 14.0337 59.7985 14.1166 60.1614 14.2772C60.5243 14.4377 60.8496 14.6723 61.1165 14.966C61.3834 15.2596 61.5859 15.6058 61.7112 15.9823C61.8365 16.3588 61.8817 16.7573 61.8439 17.1523C61.8824 17.5477 61.8377 17.9468 61.7128 18.3239C61.5879 18.7011 61.3854 19.0479 61.1185 19.3421C60.8515 19.6363 60.5259 19.8714 60.1627 20.0323C59.7995 20.1932 59.4066 20.2763 59.0093 20.2763C58.6121 20.2763 58.2192 20.1932 57.8559 20.0323C57.4927 19.8714 57.1671 19.6363 56.9002 19.3421C56.6332 19.0479 56.4308 18.7011 56.3059 18.3239C56.1809 17.9468 56.1363 17.5477 56.1748 17.1523ZM60.6237 17.1523C60.6237 15.8495 60.0385 15.0875 59.0113 15.0875C57.9802 15.0875 57.4001 15.8495 57.4001 17.1524C57.4001 18.4657 57.9802 19.2217 59.0113 19.2217C60.0385 19.2217 60.6238 18.4604 60.6238 17.1523H60.6237Z" fill="black"/>
<path d="M69.3783 20.161H68.1478L66.9056 15.7342H66.8117L65.5746 20.161H64.3558L62.699 14.1504H63.9022L64.9789 18.7368H65.0676L66.3033 14.1504H67.4413L68.6771 18.7368H68.7709L69.8424 14.1504H71.0286L69.3783 20.161Z" fill="black"/>
<path d="M72.4235 14.1498H73.5654V15.1046H73.654C73.8044 14.7617 74.058 14.4742 74.3795 14.2822C74.701 14.0903 75.0744 14.0034 75.4477 14.0337C75.7401 14.0118 76.0338 14.0559 76.3069 14.1628C76.58 14.2697 76.8255 14.4367 77.0253 14.6514C77.2251 14.8661 77.3741 15.123 77.4611 15.403C77.5481 15.6831 77.571 15.9792 77.5281 16.2693V20.1603H76.3419V16.5672C76.3419 15.6013 75.9222 15.1209 75.0449 15.1209C74.8463 15.1117 74.6481 15.1455 74.4638 15.22C74.2795 15.2945 74.1135 15.408 73.9772 15.5527C73.8409 15.6973 73.7375 15.8698 73.674 16.0582C73.6106 16.2465 73.5886 16.4464 73.6097 16.6441V20.1604H72.4235L72.4235 14.1498Z" fill="black"/>
<path d="M79.4183 11.8037H80.6045V20.1607H79.4183V11.8037Z" fill="black"/>
<path d="M82.2534 17.1524C82.2156 16.7574 82.2608 16.3589 82.3861 15.9823C82.5114 15.6058 82.714 15.2596 82.9809 14.966C83.2478 14.6723 83.5732 14.4377 83.9361 14.2772C84.299 14.1166 84.6914 14.0337 85.0882 14.0337C85.4851 14.0337 85.8775 14.1166 86.2404 14.2772C86.6033 14.4377 86.9286 14.6723 87.1955 14.966C87.4625 15.2596 87.6651 15.6058 87.7903 15.9823C87.9156 16.3589 87.9609 16.7574 87.9231 17.1524C87.9616 17.5479 87.9169 17.947 87.7919 18.3241C87.6669 18.7012 87.4644 19.048 87.1975 19.3422C86.9305 19.6364 86.6049 19.8715 86.2417 20.0324C85.8784 20.1933 85.4855 20.2764 85.0882 20.2764C84.691 20.2764 84.2981 20.1933 83.9348 20.0324C83.5716 19.8715 83.246 19.6364 82.979 19.3422C82.712 19.048 82.5095 18.7012 82.3846 18.3241C82.2596 17.947 82.2149 17.5479 82.2534 17.1524ZM86.7023 17.1524C86.7023 15.8496 86.117 15.0877 85.0899 15.0877C84.0588 15.0877 83.4787 15.8496 83.4787 17.1525C83.4787 18.4658 84.0588 19.2218 85.0899 19.2218C86.117 19.2218 86.7023 18.4605 86.7023 17.1524H86.7023Z" fill="black"/>
<path d="M89.1722 18.4605C89.1722 17.3786 89.9778 16.7548 91.4077 16.6662L93.0359 16.5723V16.0535C93.0359 15.4187 92.6161 15.0602 91.8053 15.0602C91.1431 15.0602 90.6843 15.3033 90.5526 15.7283H89.4042C89.5254 14.6959 90.4966 14.0337 91.8601 14.0337C93.367 14.0337 94.2169 14.7839 94.2169 16.0535V20.1603H93.075V19.3156H92.9811C92.7906 19.6186 92.5231 19.8656 92.2059 20.0314C91.8887 20.1972 91.5332 20.2759 91.1757 20.2593C90.9234 20.2856 90.6684 20.2587 90.4271 20.1803C90.1858 20.102 89.9636 19.9739 89.7748 19.8044C89.5861 19.635 89.4349 19.4278 89.3311 19.1963C89.2273 18.9648 89.1732 18.7142 89.1722 18.4605ZM93.0359 17.9469V17.4444L91.5681 17.5382C90.7403 17.5936 90.3649 17.8752 90.3649 18.4051C90.3649 18.946 90.8342 19.2608 91.4795 19.2608C91.6686 19.28 91.8595 19.2609 92.0411 19.2047C92.2226 19.1485 92.391 19.0564 92.5362 18.9338C92.6814 18.8112 92.8005 18.6607 92.8863 18.4911C92.9722 18.3216 93.023 18.1365 93.0359 17.9469Z" fill="black"/>
<path d="M95.7759 17.1528C95.7759 15.2535 96.7523 14.0504 98.2709 14.0504C98.6465 14.0331 99.0194 14.123 99.3458 14.3098C99.6722 14.4965 99.9386 14.7723 100.114 15.1049H100.203V11.8037H101.389V20.1607H100.252V19.211H100.158C99.9694 19.5414 99.6936 19.8138 99.3609 19.9986C99.0282 20.1834 98.6513 20.2738 98.2709 20.2597C96.7419 20.2598 95.7759 19.0566 95.7759 17.1528ZM97.0013 17.1528C97.0013 18.4277 97.6022 19.1948 98.6073 19.1948C99.6071 19.1948 100.225 18.4166 100.225 17.158C100.225 15.9053 99.6006 15.116 98.6073 15.116C97.6087 15.116 97.0013 15.8884 97.0013 17.1528H97.0013Z" fill="black"/>
<path d="M106.297 17.1523C106.259 16.7573 106.304 16.3588 106.429 15.9823C106.555 15.6058 106.757 15.2596 107.024 14.966C107.291 14.6723 107.616 14.4377 107.979 14.2772C108.342 14.1166 108.735 14.0337 109.131 14.0337C109.528 14.0337 109.921 14.1166 110.283 14.2772C110.646 14.4377 110.972 14.6723 111.238 14.966C111.505 15.2596 111.708 15.6058 111.833 15.9823C111.958 16.3588 112.004 16.7573 111.966 17.1523C112.004 17.5477 111.96 17.9468 111.835 18.3239C111.71 18.7011 111.507 19.0479 111.24 19.3421C110.974 19.6363 110.648 19.8714 110.285 20.0323C109.921 20.1932 109.529 20.2763 109.131 20.2763C108.734 20.2763 108.341 20.1932 107.978 20.0323C107.615 19.8714 107.289 19.6363 107.022 19.3421C106.755 19.0479 106.553 18.7011 106.428 18.3239C106.303 17.9468 106.258 17.5477 106.297 17.1523ZM110.746 17.1523C110.746 15.8495 110.16 15.0875 109.133 15.0875C108.102 15.0875 107.522 15.8495 107.522 17.1524C107.522 18.4657 108.102 19.2217 109.133 19.2217C110.16 19.2217 110.746 18.4604 110.746 17.1523Z" fill="black"/>
<path d="M113.558 14.1498H114.7V15.1046H114.789C114.939 14.7617 115.193 14.4742 115.514 14.2822C115.836 14.0903 116.209 14.0034 116.582 14.0337C116.875 14.0118 117.168 14.0559 117.441 14.1628C117.715 14.2697 117.96 14.4367 118.16 14.6514C118.36 14.8661 118.509 15.123 118.596 15.403C118.683 15.6831 118.706 15.9792 118.663 16.2693V20.1603H117.476V16.5672C117.476 15.6013 117.057 15.1209 116.179 15.1209C115.981 15.1117 115.783 15.1455 115.598 15.22C115.414 15.2945 115.248 15.408 115.112 15.5527C114.975 15.6973 114.872 15.8698 114.809 16.0582C114.745 16.2465 114.723 16.4464 114.744 16.6441V20.1604H113.558V14.1498Z" fill="black"/>
<path d="M125.365 12.6533V14.1772H126.667V15.1763H125.365V18.267C125.365 18.8966 125.624 19.1723 126.215 19.1723C126.366 19.1718 126.517 19.1627 126.667 19.1449V20.133C126.454 20.1711 126.238 20.1914 126.022 20.1936C124.703 20.1936 124.178 19.7296 124.178 18.5707V15.1763H123.223V14.1771H124.178V12.6533H125.365Z" fill="black"/>
<path d="M128.287 11.8037H129.463V15.116H129.557C129.714 14.7699 129.975 14.4807 130.303 14.2881C130.631 14.0954 131.01 14.0085 131.389 14.0393C131.68 14.0235 131.971 14.072 132.241 14.1815C132.511 14.291 132.754 14.4588 132.951 14.6728C133.149 14.8868 133.297 15.1419 133.385 15.4197C133.473 15.6975 133.498 15.9913 133.459 16.2801V20.1607H132.272V16.5727C132.272 15.6126 131.825 15.1264 130.987 15.1264C130.783 15.1097 130.578 15.1377 130.386 15.2085C130.194 15.2794 130.02 15.3912 129.876 15.5364C129.732 15.6815 129.621 15.8564 129.551 16.0488C129.482 16.2412 129.455 16.4465 129.473 16.6502V20.1607H128.287L128.287 11.8037Z" fill="black"/>
<path d="M140.377 18.5375C140.215 19.0868 139.866 19.562 139.39 19.8799C138.914 20.1978 138.341 20.3381 137.772 20.2764C137.376 20.2869 136.983 20.211 136.619 20.0541C136.255 19.8973 135.93 19.6631 135.666 19.3679C135.402 19.0728 135.205 18.7236 135.089 18.3448C134.973 17.9659 134.941 17.5664 134.996 17.174C134.943 16.7804 134.975 16.38 135.091 16.0001C135.206 15.6201 135.402 15.2693 135.665 14.9716C135.928 14.6738 136.251 14.436 136.614 14.2742C136.977 14.1124 137.37 14.0304 137.767 14.0338C139.439 14.0338 140.448 15.1764 140.448 17.0638V17.4777H136.204V17.5442C136.185 17.7648 136.213 17.9868 136.285 18.1961C136.358 18.4053 136.473 18.5971 136.623 18.7592C136.774 18.9214 136.957 19.0502 137.161 19.1375C137.364 19.2248 137.583 19.2686 137.805 19.2661C138.088 19.3002 138.376 19.2491 138.631 19.1194C138.885 18.9896 139.095 18.7871 139.235 18.5375L140.377 18.5375ZM136.204 16.6005H139.24C139.255 16.3987 139.227 16.1961 139.159 16.0056C139.091 15.8151 138.984 15.6409 138.845 15.4943C138.706 15.3476 138.537 15.2318 138.35 15.1541C138.164 15.0765 137.963 15.0387 137.76 15.0434C137.555 15.0408 137.352 15.0793 137.162 15.1567C136.972 15.234 136.799 15.3486 136.654 15.4937C136.509 15.6389 136.394 15.8115 136.317 16.0016C136.24 16.1917 136.201 16.3953 136.204 16.6005H136.204Z" fill="black"/>
</svg>
