<svg width="182" height="54" viewBox="0 0 182 54" fill="none" xmlns="http://www.w3.org/2000/svg">
<g clip-path="url(#clip0)">
<path d="M174.189 0.541504H7.33615C3.65015 0.541504 0.662048 3.5296 0.662048 7.21561V47.2602C0.662048 50.9462 3.65015 53.9343 7.33615 53.9343H174.189C177.875 53.9343 180.863 50.9462 180.863 47.2602V7.21561C180.863 3.5296 177.875 0.541504 174.189 0.541504Z" fill="black"/>
<path d="M174.189 1.60936C175.676 1.60936 177.102 2.20002 178.153 3.25139C179.204 4.30277 179.795 5.72874 179.795 7.21561V47.2602C179.795 48.7471 179.204 50.1731 178.153 51.2244C177.102 52.2758 175.676 52.8665 174.189 52.8665H7.33615C5.84928 52.8665 4.42331 52.2758 3.37194 51.2244C2.32056 50.1731 1.72991 48.7471 1.72991 47.2602V7.21561C1.72991 5.72874 2.32056 4.30277 3.37194 3.25139C4.42331 2.20002 5.84928 1.60936 7.33615 1.60936H174.189ZM174.189 0.541504H7.33615C5.56607 0.541504 3.86848 1.24467 2.61685 2.4963C1.36521 3.74794 0.662048 5.44553 0.662048 7.21561V47.2602C0.662048 49.0303 1.36521 50.7279 2.61685 51.9795C3.86848 53.2312 5.56607 53.9343 7.33615 53.9343H174.189C175.959 53.9343 177.656 53.2312 178.908 51.9795C180.16 50.7279 180.863 49.0303 180.863 47.2602V7.21561C180.863 5.44553 180.16 3.74794 178.908 2.4963C177.656 1.24467 175.959 0.541504 174.189 0.541504Z" fill="#A6A6A6"/>
<path d="M63.9593 14.2096C63.982 14.6992 63.905 15.1883 63.7329 15.6472C63.5608 16.1061 63.2972 16.5253 62.9582 16.8792C62.5797 17.2725 62.1225 17.5815 61.6165 17.7862C61.1105 17.9909 60.5671 18.0867 60.0216 18.0672C59.194 18.0608 58.3867 17.8102 57.7009 17.3469C57.0151 16.8836 56.4812 16.2282 56.1662 15.4629C55.8512 14.6975 55.7691 13.8562 55.9302 13.0444C56.0913 12.2326 56.4883 11.4864 57.0716 10.8992C57.455 10.5079 57.9146 10.1993 58.422 9.99266C58.9295 9.78602 59.4739 9.6857 60.0216 9.69791C60.5859 9.69603 61.1446 9.80959 61.6634 10.0316C62.1464 10.2264 62.5764 10.5329 62.9182 10.9259L62.2107 11.6334C61.9443 11.3165 61.6078 11.0659 61.2279 10.9014C60.848 10.7369 60.435 10.6631 60.0216 10.6857C59.6047 10.6836 59.1916 10.7658 58.8072 10.9273C58.4228 11.0887 58.0749 11.3262 57.7845 11.6253C57.4941 11.9245 57.267 12.2792 57.117 12.6682C56.967 13.0572 56.8971 13.4725 56.9115 13.8892C56.9027 14.5114 57.0784 15.1223 57.4165 15.6448C57.7545 16.1672 58.2397 16.5778 58.8108 16.8249C59.382 17.0719 60.0135 17.1442 60.6257 17.0327C61.2379 16.9213 61.8033 16.631 62.2508 16.1985C62.6615 15.7534 62.8984 15.1753 62.9182 14.57H60.0216V13.6089H63.9059C63.9415 13.8072 63.9594 14.0082 63.9593 14.2096ZM70.0728 10.8725H66.4688V13.4087H69.7524V14.3698H66.4688V16.9059H70.0728V17.8937H65.4009V9.88478H70.0728V10.8725ZM74.451 17.8937H73.4232V10.8725H71.1807V9.88478H76.7469V10.8725H74.451V17.8937ZM80.6713 17.8937V9.88478H81.6991V17.8937H80.6713ZM86.2642 17.8937H85.2364V10.8725H82.9939V9.88478H88.4933V10.8725H86.2642V17.8937ZM98.9183 16.8525C98.1379 17.6285 97.0822 18.0641 95.9817 18.0641C94.8812 18.0641 93.8254 17.6285 93.0451 16.8525C92.2866 16.0497 91.864 14.9871 91.864 13.8826C91.864 12.7781 92.2866 11.7155 93.0451 10.9126C93.4297 10.5252 93.8872 10.2177 94.3912 10.0078C94.8952 9.79797 95.4357 9.68994 95.9817 9.68994C96.5276 9.68994 97.0681 9.79797 97.5722 10.0078C98.0762 10.2177 98.5336 10.5252 98.9183 10.9126C99.6798 11.7139 100.104 12.7771 100.104 13.8826C100.104 14.988 99.6798 16.0512 98.9183 16.8525ZM93.8059 16.1851C94.3838 16.7606 95.1661 17.0837 95.9817 17.0837C96.7972 17.0837 97.5795 16.7606 98.1574 16.1851C98.7277 15.5565 99.0436 14.738 99.0436 13.8892C99.0436 13.0404 98.7277 12.222 98.1574 11.5934C97.5795 11.0179 96.7972 10.6948 95.9817 10.6948C95.1661 10.6948 94.3838 11.0179 93.8059 11.5934C93.2356 12.222 92.9197 13.0404 92.9197 13.8892C92.9197 14.738 93.2356 15.5565 93.8059 16.1851ZM101.548 17.8937V9.88478H102.803L106.7 16.1184V9.88478H107.728V17.8937H106.66L102.589 11.3664V17.8937H101.548Z" fill="white" stroke="white" stroke-width="0.316621" stroke-miterlimit="10"/>
<path d="M91.6167 29.5741C90.4959 29.5794 89.4017 29.9166 88.4723 30.5431C87.5429 31.1697 86.8199 32.0575 86.3946 33.0946C85.9693 34.1316 85.8608 35.2714 86.0827 36.3701C86.3046 37.4688 86.847 38.4771 87.6414 39.2679C88.4359 40.0586 89.4467 40.5962 90.5465 40.813C91.6462 41.0297 92.7854 40.9158 93.8205 40.4857C94.8555 40.0555 95.74 39.3284 96.3622 38.3961C96.9843 37.4637 97.3164 36.368 97.3164 35.2471C97.3273 34.4969 97.1871 33.7521 96.9042 33.0571C96.6213 32.3622 96.2014 31.7313 95.6696 31.2019C95.1378 30.6726 94.5049 30.2557 93.8086 29.9761C93.1123 29.6964 92.3669 29.5597 91.6167 29.5741ZM91.6167 38.691C90.9274 38.7392 90.2395 38.5789 89.6425 38.231C89.0454 37.883 88.5669 37.3635 88.269 36.74C87.9711 36.1165 87.8677 35.4178 87.9722 34.7347C88.0767 34.0517 88.3843 33.4158 88.8549 32.9099C89.3256 32.4039 89.9376 32.0513 90.6113 31.8977C91.285 31.7442 91.9894 31.7969 92.6328 32.049C93.2762 32.3011 93.8288 32.7409 94.219 33.3112C94.6091 33.8816 94.8186 34.5561 94.8203 35.2471C94.8418 35.685 94.7754 36.1227 94.625 36.5344C94.4747 36.9462 94.2434 37.3237 93.9448 37.6447C93.6463 37.9657 93.2864 38.2236 92.8866 38.4033C92.4868 38.583 92.055 38.6808 91.6167 38.691ZM79.1895 29.5741C78.0681 29.5768 76.9726 29.9117 76.0414 30.5367C75.1103 31.1616 74.3852 32.0486 73.9579 33.0854C73.5306 34.1222 73.4201 35.2624 73.6405 36.362C73.8609 37.4616 74.4023 38.4712 75.1962 39.2632C75.9901 40.0553 77.001 40.5942 78.101 40.8121C79.2011 41.0299 80.3411 40.9167 81.3769 40.487C82.4127 40.0572 83.298 39.3301 83.9207 38.3975C84.5435 37.4648 84.8759 36.3686 84.8759 35.2471C84.8868 34.4969 84.7466 33.7521 84.4636 33.0571C84.1807 32.3622 83.7609 31.7313 83.229 31.2019C82.6972 30.6726 82.0644 30.2557 81.3681 29.9761C80.6718 29.6964 79.9264 29.5597 79.1762 29.5741H79.1895ZM79.1895 38.691C78.4999 38.7419 77.8109 38.584 77.2122 38.2378C76.6135 37.8917 76.1329 37.3733 75.8329 36.7502C75.533 36.1271 75.4276 35.4282 75.5304 34.7443C75.6332 34.0605 75.9396 33.4234 76.4095 32.9161C76.8795 32.4088 77.4913 32.0547 78.1653 31.9C78.8393 31.7452 79.5443 31.797 80.1885 32.0485C80.8326 32.3 81.3862 32.7396 81.777 33.3101C82.1679 33.8806 82.3779 34.5556 82.3798 35.2471C82.4013 35.685 82.3349 36.1227 82.1845 36.5344C82.0342 36.9462 81.8029 37.3237 81.5043 37.6447C81.2057 37.9657 80.8459 38.2236 80.4461 38.4033C80.0462 38.583 79.6144 38.6808 79.1762 38.691H79.1895ZM64.3864 31.3227V33.7254H70.1528C70.0624 34.8571 69.592 35.9249 68.818 36.7555C68.2411 37.3431 67.5475 37.8034 66.782 38.1069C66.0165 38.4104 65.1959 38.5502 64.373 38.5174C62.6737 38.5174 61.0441 37.8424 59.8425 36.6408C58.6409 35.4392 57.9659 33.8096 57.9659 32.1103C57.9659 30.411 58.6409 28.7813 59.8425 27.5798C61.0441 26.3782 62.6737 25.7031 64.373 25.7031C65.9986 25.6766 67.5683 26.2959 68.7379 27.4251L70.4331 25.7298C69.6435 24.9303 68.7015 24.2974 67.6628 23.8687C66.6242 23.4399 65.51 23.224 64.3864 23.2337C63.1997 23.1875 62.0159 23.3814 60.906 23.8037C59.796 24.2259 58.7828 24.8679 57.9269 25.6911C57.071 26.5144 56.39 27.5019 55.9249 28.5946C55.4598 29.6873 55.2201 30.8627 55.2201 32.0502C55.2201 33.2378 55.4598 34.4131 55.9249 35.5058C56.39 36.5985 57.071 37.586 57.9269 38.4093C58.7828 39.2325 59.796 39.8745 60.906 40.2968C62.0159 40.719 63.1997 40.9129 64.3864 40.8667C65.5289 40.9183 66.6693 40.7247 67.7307 40.2987C68.7921 39.8728 69.75 39.2244 70.5399 38.3973C71.9384 36.8608 72.685 34.841 72.6222 32.7643C72.6265 32.2584 72.5818 31.7533 72.4887 31.256L64.3864 31.3227ZM124.867 33.1915C124.519 32.1673 123.868 31.2731 123 30.6271C122.133 29.9811 121.089 29.6139 120.008 29.5741C119.278 29.5727 118.556 29.721 117.885 30.01C117.214 30.2989 116.61 30.7223 116.11 31.254C115.609 31.7857 115.223 32.4144 114.976 33.1012C114.728 33.788 114.623 34.5184 114.669 35.2471C114.653 35.9932 114.787 36.7348 115.064 37.4278C115.341 38.1208 115.754 38.7508 116.28 39.2804C116.806 39.8099 117.433 40.228 118.124 40.5097C118.815 40.7915 119.556 40.931 120.302 40.9201C121.236 40.9251 122.156 40.6985 122.981 40.2606C123.805 39.8226 124.509 39.187 125.027 38.4106L123.092 37.0758C122.803 37.5574 122.394 37.9557 121.905 38.2318C121.416 38.5079 120.864 38.6523 120.302 38.6509C119.724 38.6729 119.152 38.5205 118.662 38.2134C118.172 37.9063 117.785 37.4588 117.552 36.929L125.147 33.7922L124.867 33.1915ZM117.125 35.0869C117.098 34.6741 117.154 34.2599 117.289 33.8688C117.424 33.4777 117.635 33.1175 117.911 32.8092C118.187 32.5009 118.522 32.2508 118.896 32.0735C119.27 31.8962 119.675 31.7952 120.088 31.7766C120.519 31.7482 120.948 31.8469 121.323 32.0605C121.698 32.2741 122.002 32.5931 122.197 32.9779L117.125 35.0869ZM110.958 40.5864H113.454V23.9011H110.958V40.5864ZM106.874 30.8422H106.78C106.404 30.4216 105.943 30.0853 105.428 29.8552C104.913 29.6252 104.355 29.5066 103.79 29.5074C102.332 29.5781 100.956 30.2074 99.9486 31.2648C98.9413 32.3222 98.3794 33.7266 98.3794 35.187C98.3794 36.6475 98.9413 38.0519 99.9486 39.1093C100.956 40.1667 102.332 40.796 103.79 40.8667C104.356 40.8762 104.917 40.7616 105.433 40.531C105.95 40.3004 106.41 39.9593 106.78 39.5319H106.86V40.3461C106.86 42.5219 105.699 43.6832 103.83 43.6832C103.208 43.6686 102.604 43.4692 102.095 43.1102C101.587 42.7513 101.196 42.2491 100.974 41.6676L98.798 42.5753C99.2076 43.5715 99.9055 44.4227 100.802 45.0197C101.699 45.6166 102.753 45.9321 103.83 45.9257C106.754 45.9257 109.17 44.2038 109.17 40.0124V29.9078H106.874V30.8422ZM104.017 38.691C103.156 38.6151 102.355 38.2194 101.771 37.5819C101.187 36.9445 100.864 36.1115 100.864 35.2471C100.864 34.3827 101.187 33.5497 101.771 32.9123C102.355 32.2748 103.156 31.8792 104.017 31.8033C104.444 31.8252 104.862 31.9323 105.247 32.1183C105.632 32.3044 105.976 32.5655 106.258 32.8865C106.541 33.2074 106.756 33.5816 106.891 33.987C107.027 34.3924 107.08 34.8209 107.047 35.2471C107.084 35.6752 107.033 36.1062 106.898 36.5141C106.763 36.9219 106.547 37.2982 106.262 37.6201C105.978 37.9421 105.631 38.2029 105.243 38.387C104.855 38.571 104.433 38.6744 104.004 38.691H104.017ZM136.56 23.9011H130.593V40.5864H133.09V34.2593H136.573C137.285 34.3104 137.999 34.2145 138.672 33.9773C139.344 33.7402 139.961 33.3671 140.483 32.8811C141.005 32.3952 141.422 31.8069 141.706 31.153C141.991 30.4991 142.138 29.7935 142.138 29.0802C142.138 28.367 141.991 27.6614 141.706 27.0075C141.422 26.3535 141.005 25.7653 140.483 25.2793C139.961 24.7934 139.344 24.4203 138.672 24.1831C137.999 23.946 137.285 23.85 136.573 23.9011H136.56ZM136.56 31.9101H133.076V26.2237H136.614C137.373 26.2237 138.101 26.5254 138.638 27.0623C139.175 27.5993 139.477 28.3275 139.477 29.0869C139.477 29.8463 139.175 30.5745 138.638 31.1115C138.101 31.6484 137.373 31.9501 136.614 31.9501L136.56 31.9101ZM151.951 29.5074C151.042 29.4531 150.137 29.6654 149.347 30.1184C148.558 30.5713 147.918 31.2451 147.506 32.0569L149.721 32.9779C149.94 32.5753 150.271 32.2448 150.674 32.0268C151.077 31.8088 151.534 31.7126 151.991 31.7499C152.308 31.7129 152.629 31.7393 152.935 31.8277C153.242 31.9161 153.528 32.0647 153.776 32.2647C154.025 32.4648 154.231 32.7123 154.383 32.9929C154.534 33.2735 154.629 33.5815 154.66 33.8989V34.0725C153.859 33.648 152.965 33.4279 152.057 33.4318C149.668 33.4318 147.252 34.7666 147.252 37.1826C147.276 37.6978 147.402 38.203 147.624 38.6683C147.847 39.1337 148.16 39.5498 148.546 39.892C148.931 40.2342 149.382 40.4956 149.87 40.6608C150.359 40.8259 150.876 40.8914 151.39 40.8534C152.019 40.8985 152.648 40.7736 153.211 40.4918C153.775 40.2099 154.253 39.7815 154.594 39.2516H154.674V40.5864H157.076V34.1659C157.076 31.2426 154.861 29.5474 152.017 29.5474L151.951 29.5074ZM151.644 38.6509C150.829 38.6509 149.695 38.2371 149.695 37.236C149.695 35.9012 151.11 35.4607 152.364 35.4607C153.157 35.4411 153.941 35.6347 154.634 36.0213C154.55 36.744 154.208 37.4121 153.671 37.9027C153.134 38.3933 152.438 38.6732 151.71 38.691L151.644 38.6509ZM165.833 29.9078L162.976 37.1426H162.896L159.933 29.9078H157.263L161.708 40.0258L159.172 45.6454H161.775L168.609 29.9078H165.833ZM143.394 40.5864H145.891V23.9011H143.394V40.5864Z" fill="white"/>
<path d="M14.5979 10.6066C14.1628 11.1287 13.9432 11.797 13.9838 12.4754V42.0016C13.9432 42.68 14.1628 43.3483 14.5979 43.8704L14.6913 43.9638L31.2297 27.4387V27.0516L14.6913 10.5132L14.5979 10.6066Z" fill="url(#paint0_linear)"/>
<path d="M36.7022 32.951L31.2294 27.4382V27.0511L36.7022 21.5249L36.8223 21.5916L43.3763 25.3158C45.245 26.3703 45.245 28.1056 43.3763 29.1734L36.849 32.8842L36.7022 32.951Z" fill="url(#paint1_linear)"/>
<path d="M36.8622 32.8707L31.2292 27.2378L14.5974 43.8697C14.9783 44.2045 15.4642 44.3958 15.9711 44.4104C16.4781 44.425 16.9742 44.2621 17.3738 43.9498L36.8755 32.8707" fill="url(#paint2_linear)"/>
<path d="M36.8623 21.605L17.3606 10.526C16.961 10.2137 16.4649 10.0507 15.9579 10.0654C15.451 10.08 14.965 10.2712 14.5841 10.6061L31.2294 27.238L36.8623 21.605Z" fill="url(#paint3_linear)"/>
<path opacity="0.2" d="M36.702 32.7505L17.3604 43.7628C16.9751 44.0509 16.5068 44.2066 16.0256 44.2066C15.5444 44.2066 15.0762 44.0509 14.6908 43.7628L14.5974 43.8562L14.6908 43.9496C15.0753 44.2398 15.5439 44.3968 16.0256 44.3968C16.5073 44.3968 16.9759 44.2398 17.3604 43.9496L36.8622 32.8706L36.702 32.7505Z" fill="black"/>
<path opacity="0.12" d="M14.5979 43.6828C14.1628 43.1607 13.9432 42.4924 13.9838 41.814V42.0143C13.9432 42.6926 14.1628 43.361 14.5979 43.883L14.6913 43.7896L14.5979 43.6828ZM43.3766 28.9731L36.7025 32.7506L36.8226 32.8707L43.3766 29.1599C43.7485 28.9852 44.0677 28.7155 44.3021 28.3781C44.5364 28.0406 44.6776 27.6473 44.7114 27.2378C44.6364 27.6098 44.477 27.9597 44.2456 28.2605C44.0142 28.5613 43.7169 28.8051 43.3766 28.9731Z" fill="black"/>
<path opacity="0.25" d="M17.3604 10.7127L43.3761 25.5025C43.7164 25.6705 44.0137 25.9143 44.2451 26.2151C44.4765 26.5159 44.6359 26.8658 44.7109 27.2378C44.6771 26.8283 44.5359 26.435 44.3016 26.0975C44.0672 25.76 43.748 25.4903 43.3761 25.3156L17.3604 10.5258C15.4917 9.47132 13.97 10.3523 13.97 12.488V12.6882C14.01 10.5392 15.505 9.6582 17.3604 10.7127Z" fill="white"/>
</g>
<defs>
<linearGradient id="paint0_linear" x1="29.7614" y1="12.1684" x2="7.36314" y2="34.5667" gradientUnits="userSpaceOnUse">
<stop stop-color="#00A0FF"/>
<stop offset="0.01" stop-color="#00A1FF"/>
<stop offset="0.26" stop-color="#00BEFF"/>
<stop offset="0.51" stop-color="#00D2FF"/>
<stop offset="0.76" stop-color="#00DFFF"/>
<stop offset="1" stop-color="#00E3FF"/>
</linearGradient>
<linearGradient id="paint1_linear" x1="45.819" y1="27.2379" x2="13.5297" y2="27.2379" gradientUnits="userSpaceOnUse">
<stop stop-color="#FFE000"/>
<stop offset="0.41" stop-color="#FFBD00"/>
<stop offset="0.78" stop-color="#FFA500"/>
<stop offset="1" stop-color="#FF9C00"/>
</linearGradient>
<linearGradient id="paint2_linear" x1="33.8054" y1="30.3079" x2="3.4249" y2="60.6751" gradientUnits="userSpaceOnUse">
<stop stop-color="#FF3A44"/>
<stop offset="1" stop-color="#C31162"/>
</linearGradient>
<linearGradient id="paint3_linear" x1="10.4061" y1="0.781803" x2="23.9679" y2="14.3436" gradientUnits="userSpaceOnUse">
<stop stop-color="#32A071"/>
<stop offset="0.07" stop-color="#2DA771"/>
<stop offset="0.48" stop-color="#15CF74"/>
<stop offset="0.8" stop-color="#06E775"/>
<stop offset="1" stop-color="#00F076"/>
</linearGradient>
<clipPath id="clip0">
<rect width="181.071" height="53.3928" fill="white" transform="translate(0.662048 0.541504)"/>
</clipPath>
</defs>
</svg>
