<svg width="237" height="61" viewBox="0 0 237 61" fill="none" xmlns="http://www.w3.org/2000/svg">
<g filter="url(#filter0_d)">
<mask id="mask0" mask-type="alpha" maskUnits="userSpaceOnUse" x="1" y="0" width="60" height="60">
<rect x="1.96216" y="0.125" width="58.1659" height="59.2899" fill="#C4C4C4"/>
</mask>
<g mask="url(#mask0)">
<path d="M40.1772 7.0094C25.0034 14.1748 17.6976 30.8939 16.5736 39.0428C19.5241 41.8527 31.8878 44.747 44.8136 42.2742" stroke="#3E74FF" stroke-width="2.52895"/>
<circle cx="42.8468" cy="5.88547" r="3.79343" fill="#3E74FF"/>
<path d="M54.7761 50.7216C56.7786 34.061 46.5061 18.9819 40.2032 13.696C36.2544 14.7 27.2518 23.1666 23.4584 36.2328" stroke="#3E74FF" stroke-width="2.52895"/>
<circle cx="54.3082" cy="53.5799" r="3.79343" transform="rotate(122.131 54.3082 53.5799)" fill="#3E74FF"/>
<path d="M9.85583 41.1035C23.2947 51.1524 41.5834 49.1733 49.3093 46.3488C50.4096 42.4258 47.3594 29.8832 37.9291 20.0758" stroke="#3E74FF" stroke-width="2.52895"/>
<circle cx="7.61215" cy="39.2716" r="3.79343" transform="rotate(-117.935 7.61215 39.2716)" fill="#3E74FF"/>
</g>
</g>
<path d="M82.4126 29.8928H85.0188L86.1963 26.2925H91.3796L92.5572 29.8928H95.1729L90.1924 15.9646H87.3932L82.4126 29.8928ZM88.7638 18.4452H88.8218L90.7522 24.3717H86.8237L88.7638 18.4452ZM97.8455 29.8928H102.932C107.102 29.8928 109.554 27.306 109.554 22.8949V22.8756C109.554 18.4742 107.083 15.9646 102.932 15.9646H97.8455V29.8928ZM100.336 27.7886V18.0688H102.672C105.442 18.0688 107.015 19.7773 107.015 22.8853V22.9046C107.015 26.0802 105.471 27.7886 102.672 27.7886H100.336ZM118.838 30.1341C122.651 30.1341 124.909 27.8658 124.909 24.0822V22.5764H119.021V24.5165H122.477L122.467 24.7289C122.419 26.6786 120.971 27.972 118.867 27.972C116.357 27.972 114.784 26.0512 114.784 22.8563V22.8467C114.784 19.7193 116.29 17.8854 118.799 17.8854C120.508 17.8854 121.714 18.7541 122.245 20.2502L122.274 20.3564H124.803L124.764 20.202C124.234 17.6345 122.091 15.7233 118.79 15.7233C114.774 15.7233 112.245 18.4452 112.245 22.866V22.8756C112.245 27.3736 114.774 30.1341 118.838 30.1341ZM128.103 25.308H134.329V23.1652H128.103V25.308ZM144.009 30.1341C147.213 30.1341 149.578 28.1554 149.935 25.2983L149.955 25.2018H147.513L147.484 25.2983C147.03 27.0164 145.785 27.972 144.009 27.972C141.586 27.972 140.022 26.0223 140.022 22.9239V22.9142C140.022 19.8255 141.576 17.8854 144.009 17.8854C145.823 17.8854 147.049 18.8796 147.455 20.4722L147.503 20.6556H149.945L149.935 20.5591C149.568 17.7213 147.213 15.7233 144.009 15.7233C140.013 15.7233 137.474 18.4645 137.474 22.9142V22.9239C137.474 27.3736 140.003 30.1341 144.009 30.1341ZM159.171 30.1341C163.245 30.1341 165.773 27.3639 165.773 22.9335V22.9142C165.773 18.4935 163.235 15.7233 159.171 15.7233C155.117 15.7233 152.559 18.4935 152.559 22.9142V22.9335C152.559 27.3639 155.098 30.1341 159.171 30.1341ZM159.171 27.972C156.681 27.972 155.098 26.0319 155.098 22.9335V22.9142C155.098 19.8159 156.691 17.8854 159.171 17.8854C161.662 17.8854 163.245 19.8255 163.245 22.9142V22.9335C163.245 26.003 161.691 27.972 159.171 27.972ZM168.948 29.8928H171.428V20.0958H171.477L178.282 29.8928H180.502V15.9646H178.031V25.723H177.973L171.187 15.9646H168.948V29.8928ZM184.149 29.8928H186.63V20.0958H186.678L193.483 29.8928H195.703V15.9646H193.232V25.723H193.174L186.388 15.9646H184.149V29.8928ZM199.35 29.8928H208.365V27.7983H201.84V23.8312H208.008V21.8139H201.84V18.0592H208.365V15.9646H199.35V29.8928ZM217.775 30.1341C220.98 30.1341 223.345 28.1554 223.702 25.2983L223.721 25.2018H221.279L221.25 25.2983C220.796 27.0164 219.551 27.972 217.775 27.972C215.352 27.972 213.789 26.0223 213.789 22.9239V22.9142C213.789 19.8255 215.343 17.8854 217.775 17.8854C219.59 17.8854 220.816 18.8796 221.221 20.4722L221.269 20.6556H223.711L223.702 20.5591C223.335 17.7213 220.98 15.7233 217.775 15.7233C213.779 15.7233 211.241 18.4645 211.241 22.9142V22.9239C211.241 27.3736 213.769 30.1341 217.775 30.1341ZM229.685 29.8928H232.166V18.0592H236.326V15.9646H225.515V18.0592H229.685V29.8928Z" fill="white"/>
<path d="M88.0288 50.9553H86.4844V39.9646H82.5806V38.5747H91.9326V39.9646H88.0288V50.9553ZM99.7735 42.0323V50.9553H98.3578V49.5053H98.3235C97.7687 50.575 96.8249 51.1098 95.4921 51.1098C94.5255 51.1098 93.7676 50.818 93.2185 50.2346C92.6751 49.6455 92.4034 48.8418 92.4034 47.8237V42.0323H93.8963V47.5577C93.8963 49.0449 94.5827 49.7885 95.9555 49.7885C96.6762 49.7885 97.2424 49.5625 97.6543 49.1107C98.0718 48.6531 98.2806 48.0411 98.2806 47.2746V42.0323H99.7735ZM103.247 39.8788H104.74V42.0323H106.473V43.2593H104.74V48.5616C104.74 48.9677 104.829 49.268 105.006 49.4624C105.183 49.6512 105.464 49.7456 105.847 49.7456C106.087 49.7456 106.293 49.7313 106.465 49.7027V50.9553C106.27 51.0011 105.956 51.024 105.521 51.024C104.703 51.024 104.12 50.8409 103.771 50.4749C103.422 50.1088 103.247 49.4968 103.247 48.6388V43.2593H101.917V42.0323H103.247V39.8788ZM112.564 51.1098C111.317 51.1098 110.316 50.6951 109.561 49.8657C108.806 49.0306 108.428 47.9066 108.428 46.4938C108.428 45.081 108.806 43.9599 109.561 43.1306C110.316 42.2955 111.317 41.8779 112.564 41.8779C113.805 41.8779 114.803 42.2955 115.558 43.1306C116.313 43.9599 116.691 45.081 116.691 46.4938C116.691 47.9009 116.313 49.022 115.558 49.8571C114.803 50.6922 113.805 51.1098 112.564 51.1098ZM110.651 48.9219C111.125 49.5053 111.763 49.7971 112.564 49.7971C113.365 49.7971 114 49.5082 114.469 48.9305C114.938 48.3471 115.172 47.5348 115.172 46.4938C115.172 45.4528 114.938 44.6435 114.469 44.0658C114 43.4823 113.365 43.1906 112.564 43.1906C111.763 43.1906 111.125 43.4823 110.651 44.0658C110.182 44.6492 109.947 45.4585 109.947 46.4938C109.947 47.5291 110.182 48.3385 110.651 48.9219ZM119.255 50.9553V42.0323H120.662V43.4909H120.696C120.845 42.9933 121.111 42.6015 121.494 42.3155C121.883 42.0238 122.338 41.8779 122.859 41.8779C122.979 41.8779 123.179 41.8979 123.459 41.938V43.388C123.299 43.3308 123.033 43.3022 122.661 43.3022C122.084 43.3022 121.62 43.4938 121.271 43.877C120.922 44.2602 120.748 44.7664 120.748 45.3956V50.9553H119.255ZM125.809 50.9553V42.0323H127.302V50.9553H125.809ZM126.555 40.5309C126.304 40.5309 126.086 40.4394 125.903 40.2563C125.72 40.0733 125.629 39.8559 125.629 39.6043C125.629 39.3469 125.72 39.1295 125.903 38.9522C126.086 38.7692 126.304 38.6776 126.555 38.6776C126.813 38.6776 127.033 38.7692 127.216 38.9522C127.399 39.1295 127.491 39.3469 127.491 39.6043C127.491 39.8559 127.399 40.0733 127.216 40.2563C127.033 40.4394 126.813 40.5309 126.555 40.5309ZM133.315 49.8399C134.019 49.8399 134.608 49.6226 135.083 49.1879C135.563 48.7475 135.803 48.2069 135.803 47.5663V46.837L133.418 46.9829C132.818 47.0229 132.351 47.1688 132.02 47.4205C131.694 47.6721 131.531 48.0096 131.531 48.4329C131.531 48.8561 131.694 49.1965 132.02 49.4539C132.346 49.7113 132.778 49.8399 133.315 49.8399ZM132.981 51.1098C132.094 51.1098 131.376 50.8638 130.827 50.3719C130.284 49.88 130.012 49.2336 130.012 48.4329C130.012 47.6664 130.292 47.0544 130.853 46.5968C131.419 46.1392 132.217 45.8818 133.247 45.8246L135.803 45.6788V44.9323C135.803 44.3889 135.632 43.9628 135.289 43.6539C134.945 43.3451 134.465 43.1906 133.847 43.1906C133.281 43.1906 132.821 43.3165 132.466 43.5681C132.111 43.8141 131.885 44.1601 131.788 44.6063H130.347C130.398 43.8112 130.741 43.1592 131.376 42.6501C132.017 42.1353 132.852 41.8779 133.882 41.8779C134.928 41.8779 135.758 42.141 136.37 42.6672C136.987 43.1935 137.296 43.8999 137.296 44.7865V50.9553H135.881V49.4195H135.846C135.577 49.9286 135.183 50.3376 134.662 50.6464C134.142 50.9553 133.581 51.1098 132.981 51.1098ZM140.324 50.9553V38.5747H141.817V50.9553H140.324ZM149.185 47.5491H150.738C150.812 48.2184 151.138 48.756 151.716 49.1621C152.299 49.5683 153.034 49.7713 153.921 49.7713C154.756 49.7713 155.445 49.574 155.989 49.1793C156.538 48.7789 156.812 48.2756 156.812 47.6693C156.812 47.1488 156.621 46.7198 156.237 46.3823C155.86 46.0448 155.254 45.7674 154.418 45.5501L152.831 45.1382C151.687 44.8465 150.852 44.4404 150.326 43.9199C149.8 43.3937 149.537 42.7101 149.537 41.8693C149.537 40.8398 149.943 39.9989 150.755 39.3469C151.573 38.6948 152.625 38.3688 153.912 38.3688C155.142 38.3688 156.16 38.7005 156.967 39.364C157.773 40.0218 158.194 40.8684 158.228 41.9036H156.684C156.615 41.2401 156.329 40.7168 155.826 40.3335C155.322 39.9503 154.667 39.7587 153.861 39.7587C153.06 39.7587 152.405 39.9475 151.896 40.325C151.393 40.7025 151.141 41.1944 151.141 41.8007C151.141 42.2697 151.324 42.6558 151.69 42.959C152.062 43.2564 152.668 43.5138 153.509 43.7311L154.805 44.0743C156.086 44.3946 157.007 44.8208 157.567 45.3527C158.128 45.8847 158.408 46.5939 158.408 47.4805C158.408 48.613 157.991 49.5111 157.155 50.1746C156.326 50.8323 155.199 51.1612 153.775 51.1612C152.459 51.1612 151.384 50.8323 150.549 50.1746C149.714 49.5168 149.259 48.6416 149.185 47.5491ZM161.11 50.9553V38.5747H162.603V43.4566H162.637C162.889 42.9532 163.255 42.5643 163.735 42.2897C164.221 42.0152 164.799 41.8779 165.468 41.8779C166.441 41.8779 167.207 42.1782 167.768 42.7788C168.328 43.3794 168.608 44.183 168.608 45.1897V50.9553H167.116V45.4643C167.116 44.7436 166.935 44.1859 166.575 43.7912C166.22 43.3965 165.697 43.1992 165.005 43.1992C164.267 43.1992 163.681 43.4308 163.246 43.8942C162.817 44.3575 162.603 44.9781 162.603 45.756V50.9553H161.11ZM175.137 43.1735C174.444 43.1735 173.87 43.4137 173.412 43.8942C172.96 44.3689 172.711 44.9809 172.666 45.7302H177.513C177.496 44.9752 177.27 44.3603 176.835 43.8856C176.401 43.4108 175.834 43.1735 175.137 43.1735ZM177.479 48.3985H178.946C178.814 49.1879 178.403 49.8371 177.711 50.3462C177.024 50.8552 176.198 51.1098 175.231 51.1098C173.955 51.1098 172.952 50.6979 172.219 49.8743C171.487 49.0506 171.121 47.9352 171.121 46.5282C171.121 45.1325 171.487 44.0086 172.219 43.1563C172.957 42.304 173.938 41.8779 175.162 41.8779C176.364 41.8779 177.313 42.2812 178.011 43.0877C178.709 43.8942 179.058 44.9752 179.058 46.3308V46.8971H172.657V46.9829C172.657 47.8409 172.892 48.5272 173.361 49.042C173.83 49.5568 174.465 49.8142 175.265 49.8142C175.826 49.8142 176.303 49.6855 176.698 49.4281C177.093 49.1707 177.353 48.8275 177.479 48.3985ZM185.2 43.1735C184.508 43.1735 183.933 43.4137 183.475 43.8942C183.023 44.3689 182.774 44.9809 182.729 45.7302H187.576C187.559 44.9752 187.333 44.3603 186.898 43.8856C186.464 43.4108 185.897 43.1735 185.2 43.1735ZM187.542 48.3985H189.009C188.878 49.1879 188.466 49.8371 187.774 50.3462C187.087 50.8552 186.261 51.1098 185.294 51.1098C184.019 51.1098 183.015 50.6979 182.283 49.8743C181.55 49.0506 181.184 47.9352 181.184 46.5282C181.184 45.1325 181.55 44.0086 182.283 43.1563C183.02 42.304 184.001 41.8779 185.225 41.8779C186.427 41.8779 187.376 42.2812 188.074 43.0877C188.772 43.8942 189.121 44.9752 189.121 46.3308V46.8971H182.72V46.9829C182.72 47.8409 182.955 48.5272 183.424 49.042C183.893 49.5568 184.528 49.8142 185.328 49.8142C185.889 49.8142 186.367 49.6855 186.761 49.4281C187.156 49.1707 187.416 48.8275 187.542 48.3985ZM192.165 39.8788H193.658V42.0323H195.391V43.2593H193.658V48.5616C193.658 48.9677 193.747 49.268 193.924 49.4624C194.102 49.6512 194.382 49.7456 194.765 49.7456C195.005 49.7456 195.211 49.7313 195.383 49.7027V50.9553C195.188 51.0011 194.874 51.024 194.439 51.024C193.621 51.024 193.038 50.8409 192.689 50.4749C192.34 50.1088 192.165 49.4968 192.165 48.6388V43.2593H190.836V42.0323H192.165V39.8788Z" fill="#CFCFCF"/>
<defs>
<filter id="filter0_d" x="0.483643" y="0.092041" width="61.6444" height="60.7179" filterUnits="userSpaceOnUse" color-interpolation-filters="sRGB">
<feFlood flood-opacity="0" result="BackgroundImageFix"/>
<feColorMatrix in="SourceAlpha" type="matrix" values="0 0 0 0 0 0 0 0 0 0 0 0 0 0 0 0 0 0 127 0"/>
<feOffset/>
<feGaussianBlur stdDeviation="1"/>
<feColorMatrix type="matrix" values="0 0 0 0 0.172549 0 0 0 0 0.372549 0 0 0 0 0.886275 0 0 0 0.58 0"/>
<feBlend mode="normal" in2="BackgroundImageFix" result="effect1_dropShadow"/>
<feBlend mode="normal" in="SourceGraphic" in2="effect1_dropShadow" result="shape"/>
</filter>
</defs>
</svg>
