<svg width="419" height="813" viewBox="0 0 419 813" fill="none" xmlns="http://www.w3.org/2000/svg">
<rect x="0.468477" y="0.405" width="418.063" height="906.19" rx="40.065" fill="#0B0B0B"/>
<path d="M30.6892 54.3468V72.077C30.6892 73.9226 31.2062 75.3887 32.2403 76.4751C33.2875 77.5485 34.7535 78.0852 36.6385 78.0852C38.5103 78.0852 39.9633 77.5485 40.9974 76.4751C42.0445 75.3887 42.5681 73.9226 42.5681 72.077V54.3468H48.4978V72.666C48.4978 75.8075 47.4179 78.347 45.2581 80.2843C43.1114 82.2085 40.2382 83.1706 36.6385 83.1706C33.0257 83.1706 30.1394 82.2085 27.9796 80.2843C25.8328 78.347 24.7595 75.8075 24.7595 72.666V54.3468H30.6892ZM52.3855 67.8162C52.3855 65.8135 53.1905 64.21 54.8005 63.0057C56.4106 61.7884 58.5639 61.1797 61.2604 61.1797C63.8914 61.1797 66.0054 61.7949 67.6024 63.0254C69.1993 64.2558 70.0174 65.892 70.0567 67.934H64.775C64.7095 67.0832 64.3561 66.4156 63.7147 65.9313C63.0864 65.447 62.2421 65.2048 61.1818 65.2048C60.187 65.2048 59.3885 65.4143 58.7864 65.8331C58.1973 66.2389 57.9028 66.7821 57.9028 67.4628C57.9028 68.4838 58.8191 69.2103 60.6517 69.6423L64.6768 70.5062C66.7842 70.9774 68.2961 71.6646 69.2124 72.5678C70.1418 73.4579 70.6065 74.6884 70.6065 76.2591C70.6065 78.3273 69.7425 79.9897 68.0147 81.2464C66.2868 82.503 64.0288 83.1313 61.2407 83.1313C58.4657 83.1313 56.247 82.5161 54.5846 81.2856C52.9222 80.0552 52.0124 78.3993 51.8553 76.3181H57.4512C57.5952 77.2082 58.001 77.8954 58.6686 78.3797C59.3492 78.864 60.259 79.1062 61.3978 79.1062C62.4842 79.1062 63.3351 78.9098 63.9503 78.5171C64.5786 78.1114 64.8928 77.5616 64.8928 76.8678C64.8928 76.3311 64.6964 75.9057 64.3037 75.5916C63.911 75.2643 63.2435 74.9894 62.301 74.7669L58.4133 73.903C54.3948 72.9867 52.3855 70.9578 52.3855 67.8162ZM82.9174 65.4208C81.6739 65.4208 80.6332 65.8462 79.7955 66.6971C78.9708 67.5479 78.5061 68.6343 78.4014 69.9564H87.3352C87.2698 68.6082 86.8312 67.5152 86.0197 66.6774C85.2212 65.8397 84.1871 65.4208 82.9174 65.4208ZM87.4137 76.2395H92.6758C92.3617 78.3077 91.3276 79.9766 89.5736 81.2464C87.8326 82.503 85.6663 83.1313 83.0745 83.1313C79.8413 83.1313 77.3019 82.1626 75.4562 80.2254C73.6237 78.2881 72.7074 75.6308 72.7074 72.2537C72.7074 68.8896 73.6237 66.2062 75.4562 64.2035C77.2888 62.1876 79.7562 61.1797 82.8585 61.1797C85.9084 61.1797 88.3366 62.1353 90.143 64.0464C91.9494 65.9575 92.8525 68.5165 92.8525 71.7235V73.471H78.3425V73.8244C78.3425 75.3298 78.781 76.5537 79.658 77.4961C80.5482 78.4255 81.7197 78.8902 83.1727 78.8902C84.2198 78.8902 85.123 78.6546 85.8822 78.1833C86.6414 77.699 87.1519 77.0511 87.4137 76.2395ZM95.8174 82.6797V61.6313H101.354V65.4208H101.472C101.839 64.0856 102.454 63.0646 103.318 62.3578C104.182 61.6509 105.235 61.2975 106.479 61.2975C107.081 61.2975 107.624 61.3695 108.109 61.5135V66.5596C107.572 66.3371 106.878 66.2258 106.027 66.2258C104.614 66.2258 103.514 66.6382 102.729 67.4628C101.943 68.2875 101.551 69.4394 101.551 70.9185V82.6797H95.8174ZM117.867 74.6098H123.581C123.712 75.7617 124.32 76.6977 125.407 77.4176C126.506 78.1244 127.848 78.4779 129.432 78.4779C131.003 78.4779 132.279 78.1441 133.261 77.4765C134.256 76.7958 134.753 75.9319 134.753 74.8847C134.753 73.9684 134.386 73.2289 133.653 72.666C132.92 72.1031 131.696 71.6319 129.982 71.2523L126.29 70.4473C121.094 69.3347 118.495 66.6971 118.495 62.5345C118.495 59.9427 119.503 57.8484 121.519 56.2514C123.548 54.6545 126.153 53.856 129.334 53.856C132.606 53.856 135.218 54.6348 137.168 56.1925C139.118 57.7371 140.12 59.7987 140.172 62.3774H134.616C134.524 61.1863 133.994 60.2503 133.025 59.5697C132.07 58.8759 130.846 58.529 129.353 58.529C127.887 58.529 126.703 58.8497 125.8 59.4911C124.909 60.1325 124.464 60.9768 124.464 62.024C124.464 62.8879 124.824 63.5882 125.544 64.1249C126.277 64.6616 127.462 65.1197 129.098 65.4993L132.534 66.2258C135.375 66.828 137.443 67.7704 138.739 69.0532C140.035 70.3229 140.683 72.0377 140.683 74.1975C140.683 76.9464 139.649 79.1324 137.58 80.7555C135.512 82.3655 132.717 83.1706 129.196 83.1706C125.78 83.1706 123.057 82.4113 121.028 80.8929C119.012 79.3614 117.959 77.2671 117.867 74.6098ZM143.942 82.6797V61.6313H149.675V82.6797H143.942ZM148.988 58.4505C148.399 59.0264 147.673 59.3144 146.809 59.3144C145.945 59.3144 145.218 59.0264 144.629 58.4505C144.04 57.8745 143.746 57.1742 143.746 56.3496C143.746 55.5118 144.04 54.8115 144.629 54.2487C145.218 53.6727 145.945 53.3847 146.809 53.3847C147.673 53.3847 148.399 53.6727 148.988 54.2487C149.577 54.8115 149.872 55.5118 149.872 56.3496C149.872 57.1742 149.577 57.8745 148.988 58.4505ZM163.223 78.203C164.663 78.203 165.802 77.6663 166.64 76.5929C167.491 75.5065 167.916 74.0142 167.916 72.1162C167.916 70.2182 167.491 68.7063 166.64 67.5806C165.789 66.4549 164.65 65.892 163.223 65.892C161.81 65.892 160.684 66.4549 159.846 67.5806C159.021 68.6933 158.609 70.2051 158.609 72.1162C158.609 74.0273 159.021 75.5196 159.846 76.5929C160.671 77.6663 161.796 78.203 163.223 78.203ZM163.125 90.6121C160.389 90.6121 158.138 90.01 156.371 88.8057C154.617 87.6145 153.622 86.0699 153.386 84.1719H159.002C159.224 84.905 159.722 85.494 160.494 85.939C161.279 86.3972 162.209 86.6263 163.282 86.6263C164.735 86.6263 165.867 86.2532 166.679 85.5071C167.491 84.7741 167.896 83.7858 167.896 82.5422V78.8509H167.778C167.281 79.9897 166.45 80.906 165.285 81.5998C164.12 82.2804 162.785 82.6208 161.279 82.6208C158.688 82.6208 156.613 81.6783 155.055 79.7934C153.511 77.9085 152.738 75.3363 152.738 72.077C152.738 68.7391 153.511 66.108 155.055 64.1838C156.6 62.2596 158.707 61.2975 161.378 61.2975C162.87 61.2975 164.185 61.6575 165.324 62.3774C166.463 63.0974 167.314 64.0726 167.877 65.303H167.975V61.6313H173.63V82.3852C173.63 84.8853 172.668 86.8815 170.743 88.3737C168.832 89.866 166.293 90.6121 163.125 90.6121ZM177.38 82.6797V61.6313H182.917V65.3815H183.035C183.611 64.0464 184.448 63.0254 185.548 62.3185C186.66 61.5986 188.015 61.2386 189.612 61.2386C191.942 61.2386 193.742 61.9324 195.012 63.3199C196.281 64.7074 196.916 66.6382 196.916 69.1121V82.6797H191.183V70.3098C191.183 68.9223 190.856 67.8555 190.201 67.1094C189.547 66.3633 188.585 65.9902 187.315 65.9902C186.045 65.9902 185.024 66.4156 184.252 67.2665C183.493 68.1173 183.113 69.2299 183.113 70.6044V82.6797H177.38ZM214.941 54.3468V72.077C214.941 73.9226 215.458 75.3887 216.492 76.4751C217.539 77.5485 219.005 78.0852 220.89 78.0852C222.762 78.0852 224.215 77.5485 225.249 76.4751C226.296 75.3887 226.82 73.9226 226.82 72.077V54.3468H232.75V72.666C232.75 75.8075 231.67 78.347 229.51 80.2843C227.363 82.2085 224.49 83.1706 220.89 83.1706C217.278 83.1706 214.391 82.2085 212.231 80.2843C210.085 78.347 209.011 75.8075 209.011 72.666V54.3468H214.941ZM249.282 61.2975C251.952 61.2975 254.053 62.2596 255.585 64.1838C257.129 66.108 257.902 68.7652 257.902 72.1555C257.902 75.5327 257.142 78.1899 255.624 80.1272C254.106 82.0514 252.024 83.0135 249.38 83.0135C247.875 83.0135 246.546 82.6731 245.394 81.9925C244.256 81.2987 243.405 80.3497 242.842 79.1454H242.724V89.5518H236.991V61.6313H242.646V65.303H242.763C243.339 64.0464 244.19 63.0646 245.316 62.3578C246.455 61.6509 247.777 61.2975 249.282 61.2975ZM247.358 78.3993C248.785 78.3993 249.917 77.8365 250.755 76.7107C251.605 75.585 252.031 74.0666 252.031 72.1555C252.031 70.2444 251.605 68.726 250.755 67.6003C249.917 66.4614 248.785 65.892 247.358 65.892C245.957 65.892 244.832 66.468 243.981 67.6199C243.13 68.7587 242.704 70.2706 242.704 72.1555C242.704 74.0535 243.123 75.5719 243.961 76.7107C244.812 77.8365 245.944 78.3993 247.358 78.3993Z" fill="white"/>
<path d="M23.0229 121.884H24.6024C24.678 122.565 25.0096 123.112 25.5972 123.525C26.1906 123.938 26.9382 124.144 27.8399 124.144C28.6893 124.144 29.3904 123.944 29.943 123.542C30.5015 123.135 30.7808 122.623 30.7808 122.006C30.7808 121.477 30.5859 121.041 30.1961 120.697C29.8121 120.354 29.1955 120.072 28.3461 119.851L26.7317 119.432C25.5681 119.135 24.7188 118.722 24.1835 118.193C23.6483 117.658 23.3807 116.962 23.3807 116.107C23.3807 115.06 23.7937 114.205 24.6199 113.542C25.4518 112.878 26.5222 112.547 27.8312 112.547C29.082 112.547 30.1176 112.884 30.9379 113.559C31.7582 114.228 32.1858 115.089 32.2207 116.142H30.6499C30.5801 115.467 30.2892 114.935 29.7772 114.545C29.2653 114.155 28.5992 113.961 27.7789 113.961C26.9644 113.961 26.2983 114.153 25.7805 114.536C25.2685 114.92 25.0126 115.421 25.0126 116.037C25.0126 116.514 25.1987 116.907 25.571 117.216C25.9492 117.518 26.5659 117.78 27.4211 118.001L28.7388 118.35C30.0419 118.676 30.9786 119.109 31.5487 119.65C32.1189 120.191 32.4039 120.913 32.4039 121.814C32.4039 122.966 31.9792 123.88 31.1298 124.555C30.2863 125.224 29.1402 125.558 27.6916 125.558C26.3535 125.558 25.2598 125.224 24.4104 124.555C23.561 123.885 23.0985 122.995 23.0229 121.884ZM34.0794 125.349V116.273H35.5978V125.349H34.0794ZM34.8386 114.746C34.5826 114.746 34.3616 114.653 34.1754 114.467C33.9892 114.28 33.8962 114.059 33.8962 113.803C33.8962 113.542 33.9892 113.321 34.1754 113.14C34.3616 112.954 34.5826 112.861 34.8386 112.861C35.1004 112.861 35.3244 112.954 35.5106 113.14C35.6967 113.321 35.7898 113.542 35.7898 113.803C35.7898 114.059 35.6967 114.28 35.5106 114.467C35.3244 114.653 35.1004 114.746 34.8386 114.746ZM41.3399 124.083C42.1311 124.083 42.7681 123.781 43.251 123.176C43.7339 122.571 43.9753 121.771 43.9753 120.776C43.9753 119.775 43.7339 118.972 43.251 118.367C42.7681 117.757 42.1311 117.451 41.3399 117.451C40.5545 117.451 39.9262 117.754 39.4549 118.359C38.9895 118.958 38.7568 119.764 38.7568 120.776C38.7568 121.788 38.9895 122.594 39.4549 123.193C39.9262 123.787 40.5545 124.083 41.3399 124.083ZM41.3922 128.769C40.3974 128.769 39.5422 128.516 38.8266 128.01C38.1111 127.51 37.6893 126.873 37.5613 126.099H39.1233C39.2746 126.518 39.5597 126.853 39.9785 127.103C40.3974 127.353 40.889 127.478 41.4533 127.478C42.2329 127.478 42.8467 127.271 43.2946 126.858C43.7484 126.445 43.9753 125.898 43.9753 125.218V123.787H43.9404C43.6553 124.287 43.2568 124.685 42.7448 124.982C42.2329 125.273 41.6628 125.418 41.0344 125.418C39.8767 125.418 38.9488 124.997 38.2507 124.153C37.5526 123.31 37.2035 122.184 37.2035 120.776C37.2035 119.356 37.5526 118.225 38.2507 117.381C38.9546 116.538 39.8942 116.116 41.0694 116.116C41.7093 116.116 42.2853 116.264 42.7972 116.561C43.3092 116.858 43.7164 117.271 44.0189 117.8H44.0451V116.273H45.4937V125.165C45.4937 126.253 45.1214 127.126 44.3767 127.783C43.632 128.441 42.6372 128.769 41.3922 128.769ZM47.4746 125.349V116.273H48.9058V117.722H48.9407C49.2025 117.216 49.5777 116.823 50.0664 116.544C50.5551 116.259 51.1398 116.116 51.8204 116.116C52.8094 116.116 53.5803 116.416 54.133 117.015C54.6856 117.608 54.962 118.423 54.962 119.458V125.349H53.4436V119.729C53.4436 118.99 53.269 118.428 52.92 118.045C52.5709 117.655 52.0502 117.46 51.3579 117.46C50.6424 117.46 50.0693 117.693 49.6388 118.158C49.2083 118.623 48.993 119.24 48.993 120.008V125.349H47.4746ZM62.3708 112.756V120.828C62.3708 121.8 62.6733 122.591 63.2784 123.202C63.8892 123.807 64.7299 124.109 65.8003 124.109C66.8708 124.109 67.7085 123.807 68.3136 123.202C68.9244 122.591 69.2298 121.8 69.2298 120.828V112.756H70.8006V120.933C70.8006 122.3 70.3498 123.414 69.448 124.275C68.5521 125.13 67.3362 125.558 65.8003 125.558C64.2645 125.558 63.0457 125.13 62.1439 124.275C61.248 123.414 60.8 122.3 60.8 120.933V112.756H62.3708ZM77.4153 116.116C78.5789 116.116 79.5155 116.544 80.2253 117.399C80.9408 118.254 81.2986 119.391 81.2986 120.811C81.2986 122.225 80.9438 123.362 80.234 124.223C79.5242 125.078 78.5963 125.506 77.4502 125.506C76.8103 125.506 76.2372 125.36 75.7311 125.069C75.225 124.778 74.8352 124.38 74.5618 123.874H74.5268V128.377H73.0084V116.273H74.4483V117.809H74.4832C74.7683 117.285 75.1668 116.872 75.6787 116.57C76.1907 116.267 76.7696 116.116 77.4153 116.116ZM77.1186 124.171C77.9273 124.171 78.5672 123.868 79.0385 123.263C79.5097 122.658 79.7453 121.841 79.7453 120.811C79.7453 119.781 79.5097 118.964 79.0385 118.359C78.5672 117.754 77.9273 117.451 77.1186 117.451C76.3391 117.451 75.7107 117.759 75.2337 118.376C74.7566 118.993 74.5181 119.804 74.5181 120.811C74.5181 121.823 74.7566 122.638 75.2337 123.254C75.7107 123.865 76.3391 124.171 77.1186 124.171ZM89.4928 124.214C90.2084 124.214 90.8076 123.993 91.2905 123.551C91.7792 123.103 92.0235 122.553 92.0235 121.902V121.16L89.5976 121.308C88.9867 121.349 88.5126 121.497 88.1751 121.753C87.8435 122.009 87.6777 122.353 87.6777 122.783C87.6777 123.214 87.8435 123.56 88.1751 123.821C88.5067 124.083 88.946 124.214 89.4928 124.214ZM89.1525 125.506C88.2508 125.506 87.5206 125.256 86.9621 124.755C86.4095 124.255 86.1331 123.598 86.1331 122.783C86.1331 122.003 86.4182 121.381 86.9883 120.916C87.5643 120.45 88.3758 120.188 89.423 120.13L92.0235 119.982V119.223C92.0235 118.67 91.849 118.237 91.4999 117.922C91.1509 117.608 90.6622 117.451 90.0339 117.451C89.4579 117.451 88.9896 117.579 88.6289 117.835C88.2682 118.085 88.0384 118.437 87.9395 118.891H86.4735C86.5258 118.082 86.8749 117.419 87.5206 116.901C88.1722 116.378 89.0216 116.116 90.0688 116.116C91.1334 116.116 91.977 116.384 92.5995 116.919C93.2278 117.454 93.5419 118.173 93.5419 119.074V125.349H92.1021V123.787H92.0672C91.7937 124.304 91.3923 124.72 90.8629 125.034C90.3335 125.349 89.7634 125.506 89.1525 125.506ZM95.549 125.349V112.756H97.0675V125.349H95.549ZM99.1967 125.349V112.756H100.715V125.349H99.1967ZM106.92 114.083H108.438V116.273H110.201V117.521H108.438V122.914C108.438 123.327 108.528 123.632 108.709 123.83C108.889 124.022 109.174 124.118 109.564 124.118C109.808 124.118 110.018 124.104 110.192 124.075V125.349C109.994 125.395 109.674 125.418 109.232 125.418C108.4 125.418 107.807 125.232 107.452 124.86C107.097 124.488 106.92 123.865 106.92 122.992V117.521H105.567V116.273H106.92V114.083ZM111.903 125.349V112.756H113.421V117.722H113.456C113.712 117.21 114.084 116.814 114.573 116.535C115.067 116.256 115.655 116.116 116.336 116.116C117.325 116.116 118.104 116.421 118.674 117.032C119.244 117.643 119.53 118.46 119.53 119.484V125.349H118.011V119.764C118.011 119.031 117.828 118.463 117.461 118.062C117.101 117.661 116.568 117.46 115.864 117.46C115.114 117.46 114.518 117.695 114.075 118.167C113.639 118.638 113.421 119.269 113.421 120.06V125.349H111.903ZM125.097 117.434C124.393 117.434 123.808 117.678 123.343 118.167C122.883 118.65 122.63 119.272 122.584 120.034H127.514C127.497 119.266 127.267 118.641 126.825 118.158C126.383 117.675 125.807 117.434 125.097 117.434ZM127.479 122.748H128.972C128.838 123.551 128.419 124.211 127.715 124.729C127.017 125.247 126.176 125.506 125.193 125.506C123.896 125.506 122.875 125.087 122.13 124.249C121.385 123.411 121.013 122.277 121.013 120.846C121.013 119.426 121.385 118.283 122.13 117.416C122.881 116.549 123.878 116.116 125.123 116.116C126.345 116.116 127.311 116.526 128.02 117.346C128.73 118.167 129.085 119.266 129.085 120.645V121.221H122.575V121.308C122.575 122.181 122.814 122.879 123.291 123.403C123.768 123.926 124.413 124.188 125.228 124.188C125.798 124.188 126.284 124.057 126.685 123.795C127.087 123.534 127.351 123.184 127.479 122.748ZM136.092 112.756V120.828C136.092 121.8 136.395 122.591 137 123.202C137.611 123.807 138.452 124.109 139.522 124.109C140.592 124.109 141.43 123.807 142.035 123.202C142.646 122.591 142.952 121.8 142.952 120.828V112.756H144.522V120.933C144.522 122.3 144.071 123.414 143.17 124.275C142.274 125.13 141.058 125.558 139.522 125.558C137.986 125.558 136.767 125.13 135.866 124.275C134.97 123.414 134.522 122.3 134.522 120.933V112.756H136.092ZM146.573 118.778C146.573 117.998 146.887 117.361 147.515 116.866C148.15 116.366 148.964 116.116 149.959 116.116C150.896 116.116 151.675 116.366 152.298 116.866C152.92 117.367 153.249 118.001 153.284 118.769H151.835C151.783 118.327 151.585 117.981 151.242 117.73C150.904 117.48 150.459 117.355 149.907 117.355C149.354 117.355 148.909 117.48 148.571 117.73C148.234 117.975 148.065 118.298 148.065 118.699C148.065 119.316 148.568 119.752 149.575 120.008L150.98 120.348C151.893 120.581 152.536 120.884 152.908 121.256C153.287 121.622 153.476 122.14 153.476 122.809C153.476 123.6 153.138 124.249 152.463 124.755C151.789 125.256 150.922 125.506 149.863 125.506C148.874 125.506 148.057 125.261 147.411 124.773C146.771 124.278 146.41 123.627 146.329 122.818H147.847C148.016 123.784 148.72 124.267 149.959 124.267C150.57 124.267 151.053 124.147 151.408 123.909C151.768 123.664 151.949 123.336 151.949 122.923C151.949 122.597 151.841 122.338 151.626 122.146C151.416 121.954 151.058 121.791 150.552 121.657L148.955 121.247C147.367 120.84 146.573 120.017 146.573 118.778ZM158.694 117.434C157.99 117.434 157.406 117.678 156.94 118.167C156.481 118.65 156.227 119.272 156.181 120.034H161.111C161.094 119.266 160.864 118.641 160.422 118.158C159.98 117.675 159.404 117.434 158.694 117.434ZM161.077 122.748H162.569C162.435 123.551 162.016 124.211 161.312 124.729C160.614 125.247 159.773 125.506 158.79 125.506C157.493 125.506 156.472 125.087 155.727 124.249C154.982 123.411 154.61 122.277 154.61 120.846C154.61 119.426 154.982 118.283 155.727 117.416C156.478 116.549 157.475 116.116 158.72 116.116C159.942 116.116 160.908 116.526 161.618 117.346C162.327 118.167 162.682 119.266 162.682 120.645V121.221H156.172V121.308C156.172 122.181 156.411 122.879 156.888 123.403C157.365 123.926 158.011 124.188 158.825 124.188C159.395 124.188 159.881 124.057 160.282 123.795C160.684 123.534 160.949 123.184 161.077 122.748ZM164.218 125.349V116.273H165.649V117.757H165.684C165.835 117.25 166.106 116.852 166.496 116.561C166.891 116.264 167.354 116.116 167.883 116.116C168.005 116.116 168.209 116.136 168.494 116.177V117.652C168.331 117.594 168.061 117.565 167.682 117.565C167.095 117.565 166.624 117.759 166.269 118.149C165.914 118.539 165.736 119.054 165.736 119.694V125.349H164.218ZM169.576 118.778C169.576 117.998 169.89 117.361 170.519 116.866C171.153 116.366 171.967 116.116 172.962 116.116C173.899 116.116 174.678 116.366 175.301 116.866C175.923 117.367 176.252 118.001 176.287 118.769H174.838C174.786 118.327 174.588 117.981 174.245 117.73C173.907 117.48 173.462 117.355 172.91 117.355C172.357 117.355 171.912 117.48 171.575 117.73C171.237 117.975 171.068 118.298 171.068 118.699C171.068 119.316 171.572 119.752 172.578 120.008L173.983 120.348C174.896 120.581 175.539 120.884 175.912 121.256C176.29 121.622 176.479 122.14 176.479 122.809C176.479 123.6 176.141 124.249 175.467 124.755C174.792 125.256 173.925 125.506 172.866 125.506C171.877 125.506 171.06 125.261 170.414 124.773C169.774 124.278 169.413 123.627 169.332 122.818H170.85C171.019 123.784 171.723 124.267 172.962 124.267C173.573 124.267 174.056 124.147 174.411 123.909C174.771 123.664 174.952 123.336 174.952 122.923C174.952 122.597 174.844 122.338 174.629 122.146C174.419 121.954 174.062 121.791 173.555 121.657L171.958 121.247C170.37 120.84 169.576 120.017 169.576 118.778Z" fill="white"/>
<path d="M25.7979 209.123H27.7352V199.794H27.7876L34.2714 209.123H36.069V196.531H34.1318V205.842H34.0794L27.6043 196.531H25.7979V209.123ZM40.6243 209.289C41.8373 209.289 42.9019 208.661 43.4342 207.674H43.4691V209.123H45.3628V202.796C45.3628 200.955 43.9404 199.768 41.6977 199.768C39.4375 199.768 38.0674 200.981 37.9365 202.561L37.9278 202.657H39.708L39.7255 202.578C39.8825 201.845 40.5545 201.33 41.6453 201.33C42.8146 201.33 43.4691 201.941 43.4691 202.953V203.643L40.9734 203.791C38.8004 203.922 37.5613 204.899 37.5613 206.496V206.514C37.5613 208.163 38.7917 209.289 40.6243 209.289ZM39.4637 206.47V206.453C39.4637 205.676 40.092 205.179 41.2264 205.109L43.4691 204.969V205.685C43.4691 206.88 42.4656 207.779 41.1392 207.779C40.1269 207.779 39.4637 207.273 39.4637 206.47ZM47.1954 209.123H49.0803V203.451C49.0803 202.264 49.8744 201.383 50.9914 201.383C52.056 201.383 52.728 202.063 52.728 203.128V209.123H54.578V203.381C54.578 202.22 55.3547 201.383 56.4717 201.383C57.5887 201.383 58.2257 202.072 58.2257 203.268V209.123H60.1193V202.814C60.1193 200.972 58.9325 199.768 57.1174 199.768C55.8084 199.768 54.7264 200.458 54.2551 201.575H54.2115C53.845 200.423 52.92 199.768 51.6546 199.768C50.4504 199.768 49.5166 200.405 49.1239 201.365H49.0803V199.943H47.1954V209.123ZM65.8614 209.306C68.0867 209.306 69.5004 207.98 69.7971 206.523L69.8145 206.427H68.0256L67.9994 206.496C67.7638 207.186 67.022 207.762 65.905 207.762C64.4041 207.762 63.4529 206.749 63.418 205.013H69.9192V204.376C69.9192 201.618 68.3397 199.768 65.7654 199.768C63.1911 199.768 61.533 201.688 61.533 204.559V204.568C61.533 207.465 63.1649 209.306 65.8614 209.306ZM65.7741 201.313C67.0046 201.313 67.8947 202.089 68.0518 203.678H63.4442C63.61 202.142 64.5524 201.313 65.7741 201.313ZM72.4587 202.7C73.0957 202.7 73.6018 202.194 73.6018 201.548C73.6018 200.911 73.0957 200.405 72.4587 200.405C71.8129 200.405 71.3067 200.911 71.3067 201.548C71.3067 202.194 71.8129 202.7 72.4587 202.7ZM72.4587 209.254C73.0957 209.254 73.6018 208.748 73.6018 208.111C73.6018 207.465 73.0957 206.968 72.4587 206.968C71.8129 206.968 71.3067 207.465 71.3067 208.111C71.3067 208.748 71.8129 209.254 72.4587 209.254Z" fill="white"/>
<rect x="22.4033" y="224.516" width="374.193" height="61.4347" rx="13.4039" fill="#171717" fill-opacity="0.46"/>
<rect x="22.4592" y="224.572" width="374.082" height="61.323" rx="13.3481" stroke="#4255FF" stroke-opacity="0.3" stroke-width="0.1117"/>
<path d="M35.8684 261.622H43.4692V260.54H37.0552V255.705H43.1463V254.641H37.0552V250.112H43.4692V249.029H35.8684V261.622ZM45.3192 261.622H46.4711V256.246C46.4711 254.553 47.527 253.419 49.1065 253.419C50.6511 253.419 51.4888 254.318 51.4888 256.002V261.622H52.6407V255.81C52.6407 253.681 51.4539 252.389 49.4468 252.389C47.9808 252.389 46.9598 253.113 46.506 254.091H46.4711V252.546H45.3192V261.622ZM57.292 261.788C57.5712 261.788 57.8679 261.753 58.0512 261.718V260.775C57.9203 260.793 57.737 260.819 57.5276 260.819C56.6811 260.819 56.2535 260.479 56.2535 259.475V253.515H58.0512V252.546H56.2535V250.094H55.0667V252.546H53.7316V253.515H55.0667V259.493C55.0667 261.081 55.7997 261.788 57.292 261.788ZM63.0253 261.788C64.9888 261.788 66.4374 260.662 66.7515 259.109L66.769 259.021H65.6258L65.6084 259.1C65.3117 260.086 64.3866 260.758 63.0515 260.758C61.2625 260.758 60.1019 259.527 60.067 257.363H66.8824V256.91C66.8824 254.196 65.3553 252.38 62.9293 252.38C60.5033 252.38 58.8977 254.257 58.8977 257.101V257.11C58.8977 259.981 60.4772 261.788 63.0253 261.788ZM62.9206 253.41C64.4739 253.41 65.5909 254.466 65.7218 256.447H60.0845C60.2241 254.518 61.376 253.41 62.9206 253.41ZM68.427 261.622H69.5789V256.002C69.5789 254.466 70.3992 253.489 71.6907 253.489C72.0834 253.489 72.4063 253.55 72.5547 253.611V252.485C72.415 252.442 72.1445 252.38 71.8391 252.38C70.7396 252.38 69.9367 253.07 69.6138 254.178H69.5789V252.546H68.427V261.622ZM78.0873 264.676C79.6406 264.676 80.3824 263.961 80.9845 262.346L84.6234 252.546H83.4017L80.6442 260.47H80.6092L77.8604 252.546H76.6212L80.0333 261.683L79.8151 262.268C79.4137 263.376 78.8814 263.707 77.8604 263.707C77.712 263.707 77.5637 263.69 77.4502 263.673V264.624C77.616 264.65 77.8604 264.676 78.0873 264.676ZM89.1787 261.788C91.6483 261.788 93.3151 259.973 93.3151 257.084V257.067C93.3151 254.178 91.6396 252.38 89.1787 252.38C86.7091 252.38 85.0423 254.187 85.0423 257.067V257.084C85.0423 259.964 86.7004 261.779 89.1787 261.788ZM89.1874 260.758C87.3985 260.749 86.2291 259.388 86.2291 257.084V257.067C86.2291 254.78 87.4072 253.41 89.1787 253.41C90.9502 253.41 92.137 254.772 92.137 257.067V257.084C92.137 259.379 90.9589 260.758 89.1874 260.758ZM98.0012 261.779C99.4673 261.779 100.48 261.055 100.942 260.077H100.968V261.622H102.129V252.546H100.968V257.922C100.968 259.615 99.921 260.749 98.3328 260.749C96.7969 260.749 95.9592 259.85 95.9592 258.166V252.546H94.7986V258.358C94.7986 260.487 95.9941 261.779 98.0012 261.779ZM104.119 261.622H105.27V256.002C105.27 254.466 106.091 253.489 107.382 253.489C107.775 253.489 108.098 253.55 108.246 253.611V252.485C108.107 252.442 107.836 252.38 107.531 252.38C106.431 252.38 105.628 253.07 105.305 254.178H105.27V252.546H104.119V261.622ZM113.342 261.622H114.529V255.906H120.324V254.841H114.529V250.112H120.839V249.029H113.342V261.622ZM125.402 261.779C126.869 261.779 127.881 261.055 128.343 260.077H128.37V261.622H129.53V252.546H128.37V257.922C128.37 259.615 127.322 260.749 125.734 260.749C124.198 260.749 123.36 259.85 123.36 258.166V252.546H122.2V258.358C122.2 260.487 123.395 261.779 125.402 261.779ZM131.598 261.622H132.75V249.029H131.598V261.622ZM134.897 261.622H136.049V249.029H134.897V261.622ZM141.965 261.622H143.144V251.045H143.187L150.587 261.622H151.765V249.029H150.587V259.606H150.544L143.144 249.029H141.965V261.622ZM156.39 261.788C157.734 261.788 158.93 261.046 159.427 259.964H159.462V261.622H160.614V255.409C160.614 253.55 159.314 252.38 157.237 252.38C155.186 252.38 153.895 253.497 153.72 255.059L153.711 255.164H154.828L154.846 255.077C155.038 254.047 155.902 253.41 157.219 253.41C158.633 253.41 159.462 254.204 159.462 255.513V256.299L156.635 256.473C154.549 256.613 153.38 257.547 153.38 259.091V259.109C153.38 260.714 154.601 261.788 156.39 261.788ZM154.558 259.109V259.091C154.558 258.096 155.352 257.477 156.774 257.389L159.462 257.206V258.21C159.462 259.658 158.214 260.775 156.626 260.775C155.396 260.775 154.558 260.103 154.558 259.109ZM162.551 261.622H163.703V256.046C163.703 254.492 164.663 253.419 165.998 253.419C167.237 253.419 168.075 254.274 168.075 255.574V261.622H169.236V255.906C169.236 254.449 170.161 253.419 171.505 253.419C172.822 253.419 173.608 254.265 173.608 255.679V261.622H174.76V255.417C174.76 253.576 173.599 252.389 171.819 252.389C170.44 252.389 169.402 253.183 168.965 254.309H168.939C168.599 253.157 167.639 252.389 166.312 252.389C165.038 252.389 164.113 253.105 163.738 254.108H163.703V252.546H162.551V261.622ZM180.38 261.788C182.343 261.788 183.792 260.662 184.106 259.109L184.123 259.021H182.98L182.963 259.1C182.666 260.086 181.741 260.758 180.406 260.758C178.617 260.758 177.456 259.527 177.421 257.363H184.237V256.91C184.237 254.196 182.71 252.38 180.284 252.38C177.858 252.38 176.252 254.257 176.252 257.101V257.11C176.252 259.981 177.831 261.788 180.38 261.788ZM180.275 253.41C181.828 253.41 182.945 254.466 183.076 256.447H177.439C177.578 254.518 178.73 253.41 180.275 253.41Z" fill="white" fill-opacity="0.3"/>
<path d="M29.3496 336.461H31.5051L35.9905 323.868H33.8874L30.4492 334.288H30.4055L26.9673 323.868H24.8642L29.3496 336.461ZM37.3868 336.461H39.3415V323.868H37.3868V336.461ZM44.7868 336.461H46.7416V325.553H50.59V323.868H40.9297V325.553H44.7868V336.461ZM55.8172 336.461H63.8107V334.776H57.7719V330.867H63.4878V329.226H57.7719V325.553H63.8107V323.868H55.8172V336.461ZM65.5909 336.461H67.4758V330.788C67.4758 329.602 68.2699 328.72 69.3869 328.72C70.4516 328.72 71.1235 329.401 71.1235 330.466V336.461H72.9735V330.719C72.9735 329.558 73.7502 328.72 74.8672 328.72C75.9842 328.72 76.6212 329.41 76.6212 330.605V336.461H78.5149V330.151C78.5149 328.31 77.3281 327.106 75.5129 327.106C74.204 327.106 73.1219 327.795 72.6506 328.912H72.607C72.2405 327.76 71.3155 327.106 70.0501 327.106C68.8459 327.106 67.9121 327.743 67.5194 328.703H67.4758V327.28H65.5909V336.461ZM83.0352 336.626C84.2482 336.626 85.3128 335.998 85.8451 335.012H85.88V336.461H87.7737V330.134C87.7737 328.293 86.3513 327.106 84.1086 327.106C81.8484 327.106 80.4783 328.319 80.3474 329.898L80.3387 329.994H82.1189L82.1364 329.916C82.2934 329.183 82.9654 328.668 84.0562 328.668C85.2256 328.668 85.88 329.279 85.88 330.291V330.98L83.3843 331.129C81.2114 331.26 79.9722 332.237 79.9722 333.834V333.851C79.9722 335.501 81.2026 336.626 83.0352 336.626ZM81.8746 333.808V333.79C81.8746 333.014 82.5029 332.516 83.6373 332.446L85.88 332.307V333.022C85.88 334.218 84.8765 335.117 83.5501 335.117C82.5378 335.117 81.8746 334.611 81.8746 333.808ZM90.6273 325.867C91.2469 325.867 91.7268 325.378 91.7268 324.785C91.7268 324.182 91.2469 323.694 90.6273 323.694C90.0164 323.694 89.5277 324.182 89.5277 324.785C89.5277 325.378 90.0164 325.867 90.6273 325.867ZM89.6848 336.461H91.5697V327.28H89.6848V336.461ZM93.5856 336.461H95.4705V323.868H93.5856V336.461ZM98.4811 330.038C99.1182 330.038 99.6243 329.532 99.6243 328.886C99.6243 328.249 99.1182 327.743 98.4811 327.743C97.8354 327.743 97.3292 328.249 97.3292 328.886C97.3292 329.532 97.8354 330.038 98.4811 330.038ZM98.4811 336.592C99.1182 336.592 99.6243 336.085 99.6243 335.448C99.6243 334.803 99.1182 334.305 98.4811 334.305C97.8354 334.305 97.3292 334.803 97.3292 335.448C97.3292 336.085 97.8354 336.592 98.4811 336.592Z" fill="white"/>
<rect x="22.4033" y="351.854" width="374.193" height="61.4347" rx="13.4039" fill="#171717" fill-opacity="0.46"/>
<rect x="22.4592" y="351.909" width="374.082" height="61.323" rx="13.3481" stroke="#4255FF" stroke-opacity="0.3" stroke-width="0.1117"/>
<path d="M36.3047 392.014C37.858 392.014 38.5998 391.298 39.2019 389.684L42.8409 379.884H41.6191L38.8616 387.808H38.8266L36.0778 379.884H34.8386L38.2507 389.021L38.0325 389.605C37.6311 390.714 37.0988 391.045 36.0778 391.045C35.9294 391.045 35.7811 391.028 35.6676 391.01V391.961C35.8335 391.988 36.0778 392.014 36.3047 392.014ZM47.3961 389.125C49.8657 389.125 51.5325 387.31 51.5325 384.422V384.404C51.5325 381.516 49.857 379.718 47.3961 379.718C44.9265 379.718 43.2597 381.524 43.2597 384.404V384.422C43.2597 387.301 44.9178 389.117 47.3961 389.125ZM47.4048 388.096C45.6159 388.087 44.4465 386.725 44.4465 384.422V384.404C44.4465 382.118 45.6246 380.748 47.3961 380.748C49.1676 380.748 50.3544 382.109 50.3544 384.404V384.422C50.3544 386.717 49.1763 388.096 47.4048 388.096ZM56.2186 389.117C57.6847 389.117 58.6969 388.392 59.1595 387.415H59.1856V388.959H60.3463V379.884H59.1856V385.259C59.1856 386.952 58.1384 388.087 56.5502 388.087C55.0144 388.087 54.1766 387.188 54.1766 385.504V379.884H53.016V385.696C53.016 387.825 54.2115 389.117 56.2186 389.117ZM62.3359 388.959H63.4878V383.34C63.4878 381.804 64.3081 380.826 65.5996 380.826C65.9923 380.826 66.3152 380.887 66.4636 380.949V379.823C66.3239 379.779 66.0534 379.718 65.748 379.718C64.6484 379.718 63.8456 380.407 63.5227 381.516H63.4878V379.884H62.3359V388.959ZM67.7114 388.959H68.8633V383.584C68.8633 381.891 69.9193 380.757 71.4988 380.757C73.0434 380.757 73.8811 381.655 73.8811 383.34V388.959H75.033V383.148C75.033 381.018 73.8462 379.727 71.8391 379.727C70.373 379.727 69.352 380.451 68.8983 381.428H68.8633V379.884H67.7114V388.959ZM79.6668 389.125C81.0107 389.125 82.2062 388.384 82.7036 387.301H82.7385V388.959H83.8904V382.746C83.8904 380.887 82.5902 379.718 80.5133 379.718C78.4625 379.718 77.171 380.835 76.9965 382.397L76.9877 382.502H78.1047L78.1222 382.415C78.3142 381.385 79.1781 380.748 80.4958 380.748C81.9095 380.748 82.7385 381.542 82.7385 382.851V383.636L79.9111 383.811C77.8255 383.95 76.6561 384.884 76.6561 386.429V386.446C76.6561 388.052 77.8778 389.125 79.6668 389.125ZM77.8342 386.446V386.429C77.8342 385.434 78.6283 384.814 80.0507 384.727L82.7385 384.544V385.547C82.7385 386.996 81.4906 388.113 79.9024 388.113C78.672 388.113 77.8342 387.441 77.8342 386.446ZM85.8277 388.959H86.9796V383.383C86.9796 381.83 87.9395 380.757 89.2747 380.757C90.5139 380.757 91.3516 381.612 91.3516 382.912V388.959H92.5122V383.244C92.5122 381.786 93.4372 380.757 94.7811 380.757C96.0988 380.757 96.8842 381.603 96.8842 383.017V388.959H98.0361V382.755C98.0361 380.914 96.8755 379.727 95.0953 379.727C93.7165 379.727 92.678 380.521 92.2417 381.647H92.2155C91.8752 380.495 90.9153 379.727 89.5888 379.727C88.3148 379.727 87.3898 380.442 87.0145 381.446H86.9796V379.884H85.8277V388.959ZM103.656 389.125C105.619 389.125 107.068 388 107.382 386.446L107.4 386.359H106.256L106.239 386.438C105.942 387.424 105.017 388.096 103.682 388.096C101.893 388.096 100.733 386.865 100.698 384.701H107.513V384.247C107.513 381.533 105.986 379.718 103.56 379.718C101.134 379.718 99.5283 381.594 99.5283 384.439V384.448C99.5283 387.319 101.108 389.125 103.656 389.125ZM103.551 380.748C105.105 380.748 106.222 381.804 106.352 383.785H100.715C100.855 381.856 102.007 380.748 103.551 380.748ZM116.091 390.993C117.261 390.993 118.299 390.853 119.006 390.609V389.684C118.413 389.919 117.278 390.068 116.1 390.068C112.487 390.068 109.843 387.694 109.843 383.715V383.706C109.843 380.015 112.417 377.379 115.934 377.379C119.512 377.379 121.973 379.631 121.973 383.113V383.121C121.973 385.373 121.284 386.577 120.21 386.577C119.399 386.577 118.875 385.923 118.875 384.683V380.303H117.854V381.524H117.802C117.47 380.678 116.597 380.128 115.585 380.128C113.805 380.128 112.566 381.603 112.566 383.758V383.767C112.566 385.958 113.779 387.432 115.585 387.432C116.693 387.432 117.61 386.883 118.029 385.757H118.098L118.125 385.853C118.386 386.821 119.128 387.502 120.193 387.502C121.825 387.502 122.994 385.958 122.994 383.113V383.104C122.994 379.064 120.071 376.454 116.013 376.454C111.807 376.454 108.831 379.43 108.831 383.697V383.706C108.831 388.279 111.868 390.993 116.091 390.993ZM115.725 386.481C114.459 386.481 113.639 385.425 113.639 383.767V383.758C113.639 382.118 114.459 381.062 115.734 381.062C117.025 381.062 117.845 382.092 117.845 383.732V383.741C117.845 385.408 117.008 386.481 115.725 386.481ZM127.026 388.959H128.256L131.625 379.884H130.42L127.654 387.746H127.628L124.87 379.884H123.648L127.026 388.959ZM133.431 378.243C133.85 378.243 134.19 377.903 134.19 377.475C134.19 377.048 133.85 376.716 133.431 376.716C133.003 376.716 132.663 377.048 132.663 377.475C132.663 377.903 133.003 378.243 133.431 378.243ZM132.846 388.959H134.007V379.884H132.846V388.959ZM138.798 389.125C139.077 389.125 139.374 389.09 139.557 389.055V388.113C139.426 388.13 139.243 388.157 139.033 388.157C138.187 388.157 137.759 387.816 137.759 386.813V380.853H139.557V379.884H137.759V377.432H136.572V379.884H135.237V380.853H136.572V386.83C136.572 388.418 137.305 389.125 138.798 389.125ZM144.287 389.125C146.276 389.125 147.716 388.034 147.716 386.49V386.481C147.716 385.207 147.027 384.5 145.22 384.064L143.85 383.741C142.655 383.453 142.166 382.991 142.166 382.266V382.258C142.166 381.332 142.986 380.695 144.217 380.695C145.482 380.695 146.285 381.385 146.433 382.441L146.442 382.502H147.55L147.542 382.406C147.393 380.844 146.154 379.718 144.217 379.718C142.323 379.718 140.988 380.791 140.988 382.301V382.31C140.988 383.566 141.808 384.317 143.519 384.727L144.889 385.059C146.102 385.347 146.538 385.774 146.538 386.56V386.568C146.538 387.52 145.665 388.148 144.295 388.148C142.925 388.148 142.079 387.467 141.896 386.42L141.878 386.342H140.726L140.735 386.42C140.91 388.026 142.227 389.125 144.287 389.125ZM151.975 389.125C152.254 389.125 152.551 389.09 152.734 389.055V388.113C152.603 388.13 152.42 388.157 152.21 388.157C151.364 388.157 150.936 387.816 150.936 386.813V380.853H152.734V379.884H150.936V377.432H149.749V379.884H148.414V380.853H149.749V386.83C149.749 388.418 150.483 389.125 151.975 389.125ZM157.499 389.117C158.965 389.117 159.977 388.392 160.439 387.415H160.466V388.959H161.626V379.884H160.466V385.259C160.466 386.952 159.418 388.087 157.83 388.087C156.294 388.087 155.457 387.188 155.457 385.504V379.884H154.296V385.696C154.296 387.825 155.492 389.117 157.499 389.117ZM167.002 389.125C168.433 389.125 169.567 388.322 170.091 387.075H170.126V388.959H171.287V376.367H170.126V381.778H170.1C169.585 380.521 168.416 379.718 166.993 379.718C164.724 379.718 163.162 381.577 163.162 384.413V384.422C163.162 387.258 164.715 389.125 167.002 389.125ZM167.22 388.096C165.475 388.096 164.349 386.664 164.349 384.422V384.413C164.349 382.188 165.475 380.748 167.22 380.748C168.913 380.748 170.135 382.231 170.135 384.413V384.422C170.135 386.612 168.93 388.096 167.22 388.096ZM177.029 389.125C178.992 389.125 180.441 388 180.755 386.446L180.772 386.359H179.629L179.612 386.438C179.315 387.424 178.39 388.096 177.055 388.096C175.266 388.096 174.105 386.865 174.07 384.701H180.886V384.247C180.886 381.533 179.359 379.718 176.933 379.718C174.507 379.718 172.901 381.594 172.901 384.439V384.448C172.901 387.319 174.48 389.125 177.029 389.125ZM176.924 380.748C178.477 380.748 179.594 381.804 179.725 383.785H174.088C174.227 381.856 175.379 380.748 176.924 380.748ZM182.43 388.959H183.582V383.584C183.582 381.891 184.638 380.757 186.218 380.757C187.762 380.757 188.6 381.655 188.6 383.34V388.959H189.752V383.148C189.752 381.018 188.565 379.727 186.558 379.727C185.092 379.727 184.071 380.451 183.617 381.428H183.582V379.884H182.43V388.959ZM194.403 389.125C194.682 389.125 194.979 389.09 195.162 389.055V388.113C195.031 388.13 194.848 388.157 194.639 388.157C193.792 388.157 193.365 387.816 193.365 386.813V380.853H195.162V379.884H193.365V377.432H192.178V379.884H190.843V380.853H192.178V386.83C192.178 388.418 192.911 389.125 194.403 389.125ZM197.658 389.073C198.112 389.073 198.47 388.715 198.47 388.261C198.47 387.808 198.112 387.45 197.658 387.45C197.204 387.45 196.847 387.808 196.847 388.261C196.847 388.715 197.204 389.073 197.658 389.073ZM203.025 389.125C204.369 389.125 205.564 388.384 206.062 387.301H206.097V388.959H207.249V382.746C207.249 380.887 205.948 379.718 203.871 379.718C201.821 379.718 200.529 380.835 200.355 382.397L200.346 382.502H201.463L201.48 382.415C201.672 381.385 202.536 380.748 203.854 380.748C205.268 380.748 206.097 381.542 206.097 382.851V383.636L203.269 383.811C201.184 383.95 200.014 384.884 200.014 386.429V386.446C200.014 388.052 201.236 389.125 203.025 389.125ZM201.192 386.446V386.429C201.192 385.434 201.986 384.814 203.409 384.727L206.097 384.544V385.547C206.097 386.996 204.849 388.113 203.261 388.113C202.03 388.113 201.192 387.441 201.192 386.446ZM212.86 389.125C214.841 389.125 216.298 387.877 216.568 386.184L216.577 386.115H215.434L215.417 386.184C215.146 387.319 214.212 388.096 212.86 388.096C211.097 388.096 209.919 386.717 209.919 384.43V384.422C209.919 382.17 211.08 380.748 212.851 380.748C214.265 380.748 215.164 381.594 215.417 382.659L215.434 382.729H216.568L216.56 382.65C216.333 381.088 214.963 379.718 212.851 379.718C210.364 379.718 208.732 381.551 208.732 384.404V384.413C208.732 387.301 210.338 389.125 212.86 389.125ZM218.724 389.073C219.178 389.073 219.536 388.715 219.536 388.261C219.536 387.808 219.178 387.45 218.724 387.45C218.27 387.45 217.912 387.808 217.912 388.261C217.912 388.715 218.27 389.073 218.724 389.073ZM222.267 378.243C222.686 378.243 223.026 377.903 223.026 377.475C223.026 377.048 222.686 376.716 222.267 376.716C221.839 376.716 221.499 377.048 221.499 377.475C221.499 377.903 221.839 378.243 222.267 378.243ZM221.682 388.959H222.843V379.884H221.682V388.959ZM224.929 388.959H226.08V383.584C226.08 381.891 227.136 380.757 228.716 380.757C230.26 380.757 231.098 381.655 231.098 383.34V388.959H232.25V383.148C232.25 381.018 231.063 379.727 229.056 379.727C227.59 379.727 226.569 380.451 226.115 381.428H226.08V379.884H224.929V388.959Z" fill="white" fill-opacity="0.3"/>
<path d="M25.7979 463.798H27.7527V458.964H30.4404L33.006 463.798H35.2575L32.4388 458.667C33.9485 458.152 34.8822 456.791 34.8822 455.08V455.063C34.8822 452.698 33.2591 451.206 30.6848 451.206H25.7979V463.798ZM27.7527 457.358V452.846H30.4404C31.9414 452.846 32.8664 453.684 32.8664 455.08V455.098C32.8664 456.529 32.0025 457.358 30.4928 457.358H27.7527ZM40.4323 463.981C42.6576 463.981 44.0713 462.655 44.368 461.198L44.3854 461.102H42.5965L42.5703 461.171C42.3347 461.861 41.5929 462.437 40.4759 462.437C38.975 462.437 38.0238 461.424 37.9889 459.688H44.4901V459.051C44.4901 456.293 42.9106 454.443 40.3363 454.443C37.762 454.443 36.104 456.363 36.104 459.234V459.243C36.104 462.14 37.7358 463.981 40.4323 463.981ZM40.345 455.988C41.5755 455.988 42.4656 456.765 42.6227 458.353H38.0151C38.1809 456.817 39.1233 455.988 40.345 455.988ZM49.9791 467.036C52.5709 467.036 54.194 465.639 54.194 463.545V454.618H52.3004V456.18H52.2567C51.7157 455.141 50.7034 454.443 49.4119 454.443C47.0819 454.443 45.5461 456.25 45.5461 459.129V459.138C45.5461 462 47.0645 463.807 49.3683 463.807C50.686 463.807 51.7332 463.17 52.2567 462.175H52.3004V463.432C52.3004 464.714 51.4714 465.517 49.9704 465.517C48.7923 465.517 47.9982 465.116 47.7451 464.531L47.7102 464.461H45.8428L45.8515 464.54C46.1307 465.945 47.623 467.036 49.9791 467.036ZM49.9006 462.271C48.4084 462.271 47.4746 461.084 47.4746 459.164V459.156C47.4746 457.262 48.4084 456.058 49.9006 456.058C51.3317 456.058 52.3004 457.271 52.3004 459.156V459.164C52.3004 461.058 51.3405 462.271 49.9006 462.271ZM59.9186 463.798H61.8559V454.469H61.9083L68.3921 463.798H70.1898V451.206H68.2525V460.517H68.2001L61.725 451.206H59.9186V463.798ZM76.2372 463.981C78.8639 463.981 80.5918 462.166 80.5918 459.208V459.19C80.5918 456.25 78.8465 454.443 76.2285 454.443C73.6193 454.443 71.8827 456.258 71.8827 459.19V459.208C71.8827 462.158 73.6018 463.981 76.2372 463.981ZM76.246 462.402C74.7712 462.402 73.8113 461.241 73.8113 459.208V459.19C73.8113 457.183 74.7799 456.023 76.2285 456.023C77.7033 456.023 78.6632 457.183 78.6632 459.19V459.208C78.6632 461.232 77.7207 462.402 76.246 462.402ZM82.6861 463.929C83.3232 463.929 83.8293 463.423 83.8293 462.786C83.8293 462.14 83.3232 461.643 82.6861 461.643C82.0404 461.643 81.5342 462.14 81.5342 462.786C81.5342 463.423 82.0404 463.929 82.6861 463.929Z" fill="white"/>
<rect x="22.4033" y="479.191" width="374.193" height="61.4347" rx="13.4039" fill="#171717" fill-opacity="0.46"/>
<rect x="22.4592" y="479.247" width="374.082" height="61.323" rx="13.3481" stroke="#4255FF" stroke-opacity="0.3" stroke-width="0.1117"/>
<path d="M35.8684 516.297H37.0552V511.139H40.1531C40.2316 511.139 40.3363 511.139 40.4062 511.139L43.3034 516.297H44.6996L41.6453 510.948C43.3208 510.511 44.3418 509.176 44.3418 507.405V507.387C44.3418 505.144 42.771 503.705 40.3102 503.705H35.8684V516.297ZM37.0552 510.084V504.769H40.1705C41.9944 504.769 43.1114 505.755 43.1114 507.413V507.431C43.1114 509.106 42.038 510.084 40.2142 510.084H37.0552ZM49.6039 516.463C51.5674 516.463 53.016 515.337 53.3301 513.784L53.3476 513.696H52.2044L52.187 513.775C51.8903 514.761 50.9652 515.433 49.6301 515.433C47.8411 515.433 46.6805 514.203 46.6456 512.038H53.461V511.585C53.461 508.871 51.9339 507.055 49.5079 507.055C47.0819 507.055 45.4763 508.932 45.4763 511.777V511.785C45.4763 514.656 47.0558 516.463 49.6039 516.463ZM49.4992 508.085C51.0525 508.085 52.1695 509.141 52.3004 511.122H46.6631C46.8027 509.193 47.9546 508.085 49.4992 508.085ZM58.7755 519.517C61.1753 519.517 62.6762 518.156 62.6762 516.061V507.221H61.5156V509.141H61.4894C60.992 507.937 59.8663 507.055 58.4177 507.055C56.1313 507.055 54.5518 508.906 54.5518 511.715V511.724C54.5518 514.552 56.1139 516.402 58.4002 516.402C59.8576 516.402 61.0095 515.555 61.4894 514.368H61.5156V515.965C61.5156 517.51 60.5033 518.487 58.7668 518.487C57.3792 518.487 56.4542 517.946 56.1488 517.213L56.1139 517.135H54.9533L54.9707 517.204C55.2936 518.487 56.62 519.517 58.7755 519.517ZM58.6271 515.372C56.8731 515.372 55.7387 513.941 55.7387 511.724V511.715C55.7387 509.525 56.8731 508.085 58.6271 508.085C60.3288 508.085 61.5156 509.543 61.5156 511.715V511.724C61.5156 513.906 60.3375 515.372 58.6271 515.372ZM65.3291 505.581C65.748 505.581 66.0883 505.24 66.0883 504.813C66.0883 504.385 65.748 504.054 65.3291 504.054C64.9015 504.054 64.5612 504.385 64.5612 504.813C64.5612 505.24 64.9015 505.581 65.3291 505.581ZM64.7444 516.297H65.9051V507.221H64.7444V516.297ZM71.1061 516.463C73.0957 516.463 74.5356 515.372 74.5356 513.827V513.819C74.5356 512.544 73.8462 511.838 72.0398 511.401L70.6697 511.078C69.4742 510.79 68.9855 510.328 68.9855 509.604V509.595C68.9855 508.67 69.8058 508.033 71.0363 508.033C72.3016 508.033 73.1044 508.722 73.2528 509.778L73.2615 509.839H74.3698L74.3611 509.743C74.2127 508.181 72.9735 507.055 71.0363 507.055C69.1426 507.055 67.8074 508.129 67.8074 509.639V509.647C67.8074 510.904 68.6277 511.654 70.3381 512.065L71.7082 512.396C72.9212 512.684 73.3575 513.112 73.3575 513.897V513.906C73.3575 514.857 72.4849 515.485 71.1148 515.485C69.7447 515.485 68.8983 514.805 68.715 513.757L68.6975 513.679H67.5456L67.5544 513.757C67.7289 515.363 69.0466 516.463 71.1061 516.463ZM78.7941 516.463C79.0734 516.463 79.3701 516.428 79.5533 516.393V515.45C79.4224 515.468 79.2392 515.494 79.0297 515.494C78.1833 515.494 77.7557 515.154 77.7557 514.15V508.19H79.5533V507.221H77.7557V504.769H76.5689V507.221H75.2337V508.19H76.5689V514.168C76.5689 515.756 77.3019 516.463 78.7941 516.463ZM81.1677 516.297H82.3196V510.677C82.3196 509.141 83.1399 508.164 84.4315 508.164C84.8242 508.164 85.147 508.225 85.2954 508.286V507.16C85.1558 507.117 84.8852 507.055 84.5798 507.055C83.4803 507.055 82.6774 507.745 82.3546 508.853H82.3196V507.221H81.1677V516.297ZM88.9518 516.463C90.2957 516.463 91.4912 515.721 91.9886 514.639H92.0235V516.297H93.1754V510.084C93.1754 508.225 91.8752 507.055 89.7983 507.055C87.7475 507.055 86.456 508.172 86.2815 509.735L86.2728 509.839H87.3898L87.4072 509.752C87.5992 508.722 88.4631 508.085 89.7808 508.085C91.1945 508.085 92.0235 508.879 92.0235 510.188V510.974L89.1961 511.148C87.1105 511.288 85.9412 512.222 85.9412 513.766V513.784C85.9412 515.389 87.1629 516.463 88.9518 516.463ZM87.1192 513.784V513.766C87.1192 512.771 87.9133 512.152 89.3358 512.065L92.0235 511.881V512.885C92.0235 514.333 90.7756 515.45 89.1874 515.45C87.957 515.45 87.1192 514.778 87.1192 513.784ZM97.818 516.463C98.0972 516.463 98.3939 516.428 98.5772 516.393V515.45C98.4463 515.468 98.263 515.494 98.0536 515.494C97.2071 515.494 96.7795 515.154 96.7795 514.15V508.19H98.5772V507.221H96.7795V504.769H95.5927V507.221H94.2575V508.19H95.5927V514.168C95.5927 515.756 96.3257 516.463 97.818 516.463ZM100.864 505.581C101.282 505.581 101.623 505.24 101.623 504.813C101.623 504.385 101.282 504.054 100.864 504.054C100.436 504.054 100.096 504.385 100.096 504.813C100.096 505.24 100.436 505.581 100.864 505.581ZM100.279 516.297H101.439V507.221H100.279V516.297ZM107.208 516.463C109.677 516.463 111.344 514.648 111.344 511.759V511.742C111.344 508.853 109.669 507.055 107.208 507.055C104.738 507.055 103.071 508.862 103.071 511.742V511.759C103.071 514.639 104.729 516.454 107.208 516.463ZM107.216 515.433C105.427 515.424 104.258 514.063 104.258 511.759V511.742C104.258 509.455 105.436 508.085 107.208 508.085C108.979 508.085 110.166 509.447 110.166 511.742V511.759C110.166 514.054 108.988 515.433 107.216 515.433ZM112.88 516.297H114.032V510.921C114.032 509.228 115.088 508.094 116.667 508.094C118.212 508.094 119.05 508.993 119.05 510.677V516.297H120.201V510.485C120.201 508.356 119.015 507.064 117.008 507.064C115.542 507.064 114.521 507.789 114.067 508.766H114.032V507.221H112.88V516.297ZM125.996 516.297H127.174V505.72H127.218L134.618 516.297H135.796V503.705H134.618V514.281H134.574L127.174 503.705H125.996V516.297ZM141.128 516.454C142.594 516.454 143.606 515.73 144.069 514.752H144.095V516.297H145.255V507.221H144.095V512.597C144.095 514.29 143.048 515.424 141.459 515.424C139.923 515.424 139.086 514.525 139.086 512.841V507.221H137.925V513.033C137.925 515.162 139.121 516.454 141.128 516.454ZM147.245 516.297H148.397V510.721C148.397 509.167 149.357 508.094 150.692 508.094C151.931 508.094 152.769 508.949 152.769 510.249V516.297H153.93V510.581C153.93 509.124 154.855 508.094 156.198 508.094C157.516 508.094 158.301 508.94 158.301 510.354V516.297H159.453V510.092C159.453 508.251 158.293 507.064 156.513 507.064C155.134 507.064 154.095 507.858 153.659 508.984H153.633C153.292 507.832 152.333 507.064 151.006 507.064C149.732 507.064 148.807 507.78 148.432 508.783H148.397V507.221H147.245V516.297ZM165.763 516.463C168.049 516.463 169.602 514.595 169.602 511.759V511.75C169.602 508.914 168.04 507.055 165.771 507.055C164.349 507.055 163.18 507.858 162.665 509.115H162.639V503.705H161.478V516.297H162.639V514.377H162.665C163.188 515.66 164.332 516.463 165.763 516.463ZM165.545 515.433C163.834 515.433 162.63 513.949 162.63 511.759V511.75C162.63 509.569 163.852 508.085 165.545 508.085C167.29 508.085 168.416 509.525 168.416 511.75V511.759C168.416 514.002 167.29 515.433 165.545 515.433ZM174.812 516.463C176.776 516.463 178.224 515.337 178.538 513.784L178.556 513.696H177.413L177.395 513.775C177.098 514.761 176.173 515.433 174.838 515.433C173.049 515.433 171.889 514.203 171.854 512.038H178.669V511.585C178.669 508.871 177.142 507.055 174.716 507.055C172.29 507.055 170.684 508.932 170.684 511.777V511.785C170.684 514.656 172.264 516.463 174.812 516.463ZM174.707 508.085C176.261 508.085 177.378 509.141 177.509 511.122H171.871C172.011 509.193 173.163 508.085 174.707 508.085ZM180.214 516.297H181.366V510.677C181.366 509.141 182.186 508.164 183.478 508.164C183.87 508.164 184.193 508.225 184.341 508.286V507.16C184.202 507.117 183.931 507.055 183.626 507.055C182.526 507.055 181.723 507.745 181.401 508.853H181.366V507.221H180.214V516.297Z" fill="white" fill-opacity="0.3"/>
<path d="M31.1822 591.345C33.966 591.345 36.0516 589.661 36.4443 587.156L36.453 587.069H34.5157L34.4895 587.147C34.0183 588.744 32.8577 589.617 31.1822 589.617C28.8522 589.617 27.3425 587.75 27.3425 584.835V584.826C27.3425 581.912 28.8435 580.062 31.1822 580.062C32.8751 580.062 34.0445 580.96 34.4634 582.435L34.5157 582.61H36.453L36.4356 582.531C36.0429 580.044 33.9572 578.334 31.1822 578.334C27.613 578.334 25.3441 580.829 25.3441 584.826V584.835C25.3441 588.832 27.613 591.345 31.1822 591.345ZM41.942 591.319C44.5687 591.319 46.2965 589.504 46.2965 586.545V586.528C46.2965 583.587 44.5512 581.781 41.9333 581.781C39.324 581.781 37.5875 583.596 37.5875 586.528V586.545C37.5875 589.495 39.3066 591.319 41.942 591.319ZM41.9507 589.739C40.4759 589.739 39.516 588.579 39.516 586.545V586.528C39.516 584.521 40.4847 583.36 41.9333 583.36C43.4081 583.36 44.368 584.521 44.368 586.528V586.545C44.368 588.57 43.4255 589.739 41.9507 589.739ZM47.7539 591.135H49.6388V585.786C49.6388 584.355 50.494 583.395 51.8204 583.395C53.1294 583.395 53.7752 584.172 53.7752 585.551V591.135H55.6688V585.193C55.6688 583.081 54.5082 581.781 52.4924 581.781C51.1048 581.781 50.1624 582.409 49.6824 583.343H49.6388V581.955H47.7539V591.135ZM60.7128 591.319C61.0967 591.319 61.4545 591.275 61.6727 591.24V589.783C61.533 589.8 61.3672 589.818 61.1665 589.818C60.3724 589.818 59.9535 589.539 59.9535 588.605V583.456H61.6727V581.955H59.9535V579.564H58.025V581.955H56.7073V583.456H58.025V588.718C58.025 590.551 58.8976 591.319 60.7128 591.319ZM65.7916 591.301C67.0046 591.301 68.0692 590.673 68.6015 589.687H68.6364V591.135H70.5301V584.809C70.5301 582.967 69.1077 581.781 66.865 581.781C64.6048 581.781 63.2347 582.994 63.1038 584.573L63.0951 584.669H64.8753L64.8928 584.591C65.0498 583.858 65.7218 583.343 66.8126 583.343C67.9819 583.343 68.6364 583.954 68.6364 584.966V585.655L66.1406 585.804C63.9677 585.934 62.7286 586.912 62.7286 588.509V588.526C62.7286 590.176 63.959 591.301 65.7916 591.301ZM64.631 588.483V588.465C64.631 587.689 65.2593 587.191 66.3937 587.121L68.6364 586.982V587.697C68.6364 588.893 67.6329 589.792 66.3065 589.792C65.2942 589.792 64.631 589.285 64.631 588.483ZM76.307 591.319C78.5149 591.319 80.0507 589.905 80.2514 588.064L80.2602 588.003H78.445L78.4363 588.072C78.2094 589.067 77.4677 589.739 76.307 589.739C74.8497 589.739 73.8811 588.561 73.8811 586.554V586.545C73.8811 584.582 74.8323 583.36 76.2983 583.36C77.5288 583.36 78.2269 584.119 78.4276 585.018L78.445 585.088H80.2427L80.234 585.027C80.0769 583.299 78.6458 581.781 76.2809 581.781C73.6629 581.781 71.9525 583.622 71.9525 586.528V586.537C71.9525 589.477 73.628 591.319 76.307 591.319ZM84.8154 591.319C85.1994 591.319 85.5572 591.275 85.7753 591.24V589.783C85.6357 589.8 85.4699 589.818 85.2692 589.818C84.4751 589.818 84.0562 589.539 84.0562 588.605V583.456H85.7753V581.955H84.0562V579.564H82.1276V581.955H80.8099V583.456H82.1276V588.718C82.1276 590.551 83.0003 591.319 84.8154 591.319ZM91.1945 591.135H93.1318V581.807H93.1841L99.668 591.135H101.466V578.543H99.5283V587.854H99.476L93.0009 578.543H91.1945V591.135ZM107.513 591.319C110.14 591.319 111.868 589.504 111.868 586.545V586.528C111.868 583.587 110.122 581.781 107.504 581.781C104.895 581.781 103.159 583.596 103.159 586.528V586.545C103.159 589.495 104.878 591.319 107.513 591.319ZM107.522 589.739C106.047 589.739 105.087 588.579 105.087 586.545V586.528C105.087 584.521 106.056 583.36 107.504 583.36C108.979 583.36 109.939 584.521 109.939 586.528V586.545C109.939 588.57 108.997 589.739 107.522 589.739ZM113.962 591.266C114.599 591.266 115.105 590.76 115.105 590.123C115.105 589.477 114.599 588.98 113.962 588.98C113.316 588.98 112.81 589.477 112.81 590.123C112.81 590.76 113.316 591.266 113.962 591.266Z" fill="white"/>
<rect x="22.4033" y="606.528" width="374.193" height="61.4347" rx="13.4039" fill="#171717" fill-opacity="0.46"/>
<rect x="22.4592" y="606.584" width="374.082" height="61.323" rx="13.3481" stroke="#4255FF" stroke-opacity="0.3" stroke-width="0.1117"/>
<path d="M41.0519 643.835C43.6699 643.835 45.5897 642.247 46.0609 639.873L46.0784 639.786H44.8829L44.8567 639.864C44.3331 641.653 43.0067 642.727 41.0519 642.727C38.3467 642.727 36.5839 640.597 36.5839 637.334V637.325C36.5839 634.053 38.3292 631.949 41.0519 631.949C43.0154 631.949 44.3505 633.032 44.8305 634.733L44.8829 634.89H46.0784L46.0609 634.803C45.5897 632.447 43.6611 630.841 41.0519 630.841C37.5788 630.841 35.3622 633.372 35.3622 637.325V637.334C35.3622 641.278 37.5962 643.835 41.0519 643.835ZM51.3405 643.8C53.8101 643.8 55.4769 641.985 55.4769 639.096V639.079C55.4769 636.191 53.8014 634.393 51.3405 634.393C48.8709 634.393 47.2041 636.199 47.2041 639.079V639.096C47.2041 641.976 48.8622 643.791 51.3405 643.8ZM51.3492 642.77C49.5603 642.762 48.3909 641.4 48.3909 639.096V639.079C48.3909 636.793 49.569 635.423 51.3405 635.423C53.112 635.423 54.2988 636.784 54.2988 639.079V639.096C54.2988 641.392 53.1207 642.77 51.3492 642.77ZM57.0127 643.634H58.1646V638.259C58.1646 636.566 59.2205 635.431 60.8 635.431C62.3446 635.431 63.1824 636.33 63.1824 638.014V643.634H64.3343V637.822C64.3343 635.693 63.1475 634.402 61.1404 634.402C59.6743 634.402 58.6533 635.126 58.1995 636.103H58.1646V634.559H57.0127V643.634ZM68.9855 643.8C69.2648 643.8 69.5615 643.765 69.7447 643.73V642.788C69.6138 642.805 69.4306 642.831 69.2211 642.831C68.3747 642.831 67.9471 642.491 67.9471 641.488V635.527H69.7447V634.559H67.9471V632.107H66.7603V634.559H65.4251V635.527H66.7603V641.505C66.7603 643.093 67.4933 643.8 68.9855 643.8ZM73.7851 643.8C75.129 643.8 76.3245 643.058 76.8219 641.976H76.8568V643.634H78.0087V637.421C78.0087 635.562 76.7085 634.393 74.6316 634.393C72.5808 634.393 71.2893 635.51 71.1148 637.072L71.1061 637.177H72.2231L72.2405 637.089C72.4325 636.06 73.2964 635.423 74.6141 635.423C76.0278 635.423 76.8568 636.217 76.8568 637.526V638.311L74.0294 638.486C71.9438 638.625 70.7745 639.559 70.7745 641.104V641.121C70.7745 642.727 71.9962 643.8 73.7851 643.8ZM71.9525 641.121V641.104C71.9525 640.109 72.7466 639.489 74.1691 639.402L76.8568 639.219V640.222C76.8568 641.671 75.6089 642.788 74.0207 642.788C72.7903 642.788 71.9525 642.116 71.9525 641.121ZM83.6199 643.8C85.6008 643.8 87.0581 642.552 87.3287 640.859L87.3374 640.789H86.1942L86.1768 640.859C85.9062 641.994 84.9725 642.77 83.6199 642.77C81.8571 642.77 80.6791 641.392 80.6791 639.105V639.096C80.6791 636.845 81.8397 635.423 83.6112 635.423C85.0249 635.423 85.9237 636.269 86.1768 637.334L86.1942 637.404H87.3287L87.3199 637.325C87.0931 635.763 85.723 634.393 83.6112 634.393C81.1241 634.393 79.4923 636.225 79.4923 639.079V639.088C79.4923 641.976 81.0979 643.8 83.6199 643.8ZM91.4825 643.8C91.7617 643.8 92.0584 643.765 92.2417 643.73V642.788C92.1108 642.805 91.9275 642.831 91.7181 642.831C90.8716 642.831 90.444 642.491 90.444 641.488V635.527H92.2417V634.559H90.444V632.107H89.2572V634.559H87.9221V635.527H89.2572V641.505C89.2572 643.093 89.9903 643.8 91.4825 643.8ZM97.7045 643.634H98.8826V633.058H98.9262L106.326 643.634H107.504V631.042H106.326V641.618H106.283L98.8826 631.042H97.7045V643.634ZM112.836 643.791C114.302 643.791 115.315 643.067 115.777 642.09H115.803V643.634H116.964V634.559H115.803V639.934C115.803 641.627 114.756 642.762 113.168 642.762C111.632 642.762 110.794 641.863 110.794 640.179V634.559H109.634V640.371C109.634 642.5 110.829 643.791 112.836 643.791ZM118.954 643.634H120.105V638.058C120.105 636.505 121.065 635.431 122.401 635.431C123.64 635.431 124.477 636.287 124.477 637.587V643.634H125.638V637.918C125.638 636.461 126.563 635.431 127.907 635.431C129.225 635.431 130.01 636.278 130.01 637.692V643.634H131.162V637.43C131.162 635.588 130.001 634.402 128.221 634.402C126.842 634.402 125.804 635.196 125.368 636.321H125.341C125.001 635.17 124.041 634.402 122.715 634.402C121.441 634.402 120.516 635.117 120.14 636.121H120.105V634.559H118.954V643.634ZM137.471 643.8C139.758 643.8 141.311 641.933 141.311 639.096V639.088C141.311 636.252 139.749 634.393 137.48 634.393C136.058 634.393 134.888 635.196 134.373 636.452H134.347V631.042H133.187V643.634H134.347V641.714H134.373C134.897 642.997 136.04 643.8 137.471 643.8ZM137.253 642.77C135.543 642.77 134.338 641.287 134.338 639.096V639.088C134.338 636.906 135.56 635.423 137.253 635.423C138.998 635.423 140.124 636.862 140.124 639.088V639.096C140.124 641.339 138.998 642.77 137.253 642.77ZM146.521 643.8C148.484 643.8 149.933 642.674 150.247 641.121L150.264 641.034H149.121L149.104 641.112C148.807 642.098 147.882 642.77 146.547 642.77C144.758 642.77 143.597 641.54 143.562 639.376H150.378V638.922C150.378 636.208 148.851 634.393 146.425 634.393C143.999 634.393 142.393 636.269 142.393 639.114V639.123C142.393 641.994 143.973 643.8 146.521 643.8ZM146.416 635.423C147.969 635.423 149.086 636.479 149.217 638.459H143.58C143.719 636.531 144.871 635.423 146.416 635.423ZM151.922 643.634H153.074V638.014C153.074 636.479 153.895 635.501 155.186 635.501C155.579 635.501 155.902 635.562 156.05 635.623V634.498C155.91 634.454 155.64 634.393 155.334 634.393C154.235 634.393 153.432 635.082 153.109 636.191H153.074V634.559H151.922V643.634Z" fill="white" fill-opacity="0.3"/>
<path d="M25.7979 718.473H27.7527V714.171H30.4841C32.9537 714.171 34.6641 712.487 34.6641 710.026V710.008C34.6641 707.539 32.9537 705.881 30.4841 705.881H25.7979V718.473ZM29.9954 707.53C31.6971 707.53 32.6744 708.446 32.6744 710.017V710.034C32.6744 711.614 31.6971 712.53 29.9954 712.53H27.7527V707.53H29.9954ZM38.1111 718.639C39.324 718.639 40.3887 718.01 40.921 717.024H40.9559V718.473H42.8496V712.146C42.8496 710.305 41.4271 709.118 39.1844 709.118C36.9242 709.118 35.5542 710.331 35.4233 711.911L35.4146 712.007H37.1948L37.2122 711.928C37.3693 711.195 38.0412 710.68 39.1321 710.68C40.3014 710.68 40.9559 711.291 40.9559 712.303V712.993L38.4601 713.141C36.2872 713.272 35.048 714.249 35.048 715.846V715.864C35.048 717.513 36.2785 718.639 38.1111 718.639ZM36.9504 715.82V715.803C36.9504 715.026 37.5787 714.529 38.7132 714.459L40.9559 714.319V715.035C40.9559 716.23 39.9523 717.129 38.6259 717.129C37.6136 717.129 36.9504 716.623 36.9504 715.82ZM48.1204 718.656C50.2846 718.656 51.8553 717.504 51.8553 715.829V715.82C51.8553 714.502 51.1398 713.761 49.2635 713.324L47.7713 712.984C46.7852 712.748 46.41 712.364 46.41 711.797V711.788C46.41 711.055 47.047 710.575 48.0593 710.575C49.1239 710.575 49.7522 711.134 49.8657 711.937L49.8744 711.998H51.6459L51.6372 711.893C51.5412 710.331 50.2322 709.118 48.0593 709.118C45.9475 709.118 44.5163 710.244 44.5163 711.884V711.893C44.5163 713.228 45.3802 714.066 47.1256 714.467L48.6265 714.808C49.6126 715.043 49.9442 715.384 49.9442 715.977V715.986C49.9442 716.728 49.2635 717.199 48.1291 717.199C46.9685 717.199 46.3402 716.701 46.1656 715.855L46.1482 715.768H44.2807L44.2894 715.846C44.4814 717.522 45.8253 718.656 48.1204 718.656ZM56.7596 718.656C58.9238 718.656 60.4946 717.504 60.4946 715.829V715.82C60.4946 714.502 59.779 713.761 57.9028 713.324L56.4106 712.984C55.4245 712.748 55.0492 712.364 55.0492 711.797V711.788C55.0492 711.055 55.6863 710.575 56.6985 710.575C57.7632 710.575 58.3915 711.134 58.5049 711.937L58.5137 711.998H60.2852L60.2764 711.893C60.1804 710.331 58.8715 709.118 56.6985 709.118C54.5867 709.118 53.1556 710.244 53.1556 711.884V711.893C53.1556 713.228 54.0195 714.066 55.7648 714.467L57.2658 714.808C58.2519 715.043 58.5835 715.384 58.5835 715.977V715.986C58.5835 716.728 57.9028 717.199 56.7684 717.199C55.6077 717.199 54.9794 716.701 54.8049 715.855L54.7874 715.768H52.92L52.9287 715.846C53.1207 717.522 54.4646 718.656 56.7596 718.656ZM63.7496 718.473H65.6956L67.6067 711.596H67.6503L69.5789 718.473H71.5424L74.0556 709.293H72.1881L70.5126 716.518H70.469L68.5492 709.293H66.7341L64.8229 716.518H64.788L63.1125 709.293H61.2276L63.7496 718.473ZM79.0995 718.656C81.7262 718.656 83.4541 716.841 83.4541 713.883V713.865C83.4541 710.924 81.7088 709.118 79.0908 709.118C76.4816 709.118 74.745 710.933 74.745 713.865V713.883C74.745 716.832 76.4641 718.656 79.0995 718.656ZM79.1083 717.077C77.6335 717.077 76.6736 715.916 76.6736 713.883V713.865C76.6736 711.858 77.6422 710.698 79.0908 710.698C80.5656 710.698 81.5255 711.858 81.5255 713.865V713.883C81.5255 715.907 80.583 717.077 79.1083 717.077ZM84.9114 718.473H86.7963V713.001C86.7963 711.631 87.5468 710.837 88.7598 710.837C89.1263 710.837 89.4579 710.881 89.6063 710.942V709.188C89.4579 709.162 89.2223 709.118 88.9518 709.118C87.9046 709.118 87.1367 709.79 86.84 710.863H86.7963V709.293H84.9114V718.473ZM93.8037 718.656C95.1214 718.656 96.1337 717.993 96.6835 716.92H96.7184V718.473H98.612V705.881H96.7184V710.855H96.6835C96.1337 709.773 95.0865 709.118 93.7863 709.118C91.4825 709.118 89.9641 710.951 89.9641 713.874V713.883C89.9641 716.806 91.465 718.656 93.8037 718.656ZM94.3011 717.033C92.8089 717.033 91.8926 715.837 91.8926 713.883V713.874C91.8926 711.937 92.8176 710.732 94.3011 710.732C95.7148 710.732 96.7271 711.972 96.7271 713.874V713.883C96.7271 715.794 95.7236 717.033 94.3011 717.033Z" fill="white"/>
<rect x="22.4033" y="733.866" width="374.193" height="61.4347" rx="13.4039" fill="#171717" fill-opacity="0.46"/>
<rect x="22.4592" y="733.922" width="374.082" height="61.323" rx="13.3481" stroke="#4255FF" stroke-opacity="0.3" stroke-width="0.1117"/>
<path d="M35.8684 770.972H36.9854V760.622H37.0464L41.4097 770.972H42.4482L46.8201 760.622H46.8812V770.972H47.9982V758.379H46.6282L41.9595 769.471H41.9071L37.2384 758.379H35.8684V770.972ZM50.8431 760.256C51.2619 760.256 51.6023 759.915 51.6023 759.488C51.6023 759.06 51.2619 758.728 50.8431 758.728C50.4155 758.728 50.0751 759.06 50.0751 759.488C50.0751 759.915 50.4155 760.256 50.8431 760.256ZM50.2584 770.972H51.419V761.896H50.2584V770.972ZM53.5047 770.972H54.6566V765.596C54.6566 763.903 55.7125 762.769 57.292 762.769C58.8366 762.769 59.6743 763.668 59.6743 765.352V770.972H60.8262V765.16C60.8262 763.031 59.6394 761.739 57.6323 761.739C56.1663 761.739 55.1453 762.463 54.6915 763.441H54.6566V761.896H53.5047V770.972ZM63.4442 760.256C63.863 760.256 64.2034 759.915 64.2034 759.488C64.2034 759.06 63.863 758.728 63.4442 758.728C63.0166 758.728 62.6762 759.06 62.6762 759.488C62.6762 759.915 63.0166 760.256 63.4442 760.256ZM62.8595 770.972H64.0201V761.896H62.8595V770.972ZM66.1058 770.972H67.2577V765.395C67.2577 763.842 68.2176 762.769 69.5527 762.769C70.7919 762.769 71.6297 763.624 71.6297 764.924V770.972H72.7903V765.256C72.7903 763.798 73.7153 762.769 75.0592 762.769C76.3769 762.769 77.1623 763.615 77.1623 765.029V770.972H78.3142V764.767C78.3142 762.926 77.1535 761.739 75.3733 761.739C73.9945 761.739 72.9561 762.533 72.5198 763.659H72.4936C72.1532 762.507 71.1933 761.739 69.8669 761.739C68.5928 761.739 67.6678 762.455 67.2926 763.458H67.2577V761.896H66.1058V770.972ZM83.4105 771.129C84.8765 771.129 85.8888 770.404 86.3513 769.427H86.3775V770.972H87.5381V761.896H86.3775V767.272C86.3775 768.965 85.3303 770.099 83.7421 770.099C82.2062 770.099 81.3685 769.2 81.3685 767.516V761.896H80.2078V767.708C80.2078 769.837 81.4034 771.129 83.4105 771.129ZM89.5278 770.972H90.6797V765.395C90.6797 763.842 91.6396 762.769 92.9747 762.769C94.2139 762.769 95.0516 763.624 95.0516 764.924V770.972H96.2123V765.256C96.2123 763.798 97.1373 762.769 98.4812 762.769C99.7989 762.769 100.584 763.615 100.584 765.029V770.972H101.736V764.767C101.736 762.926 100.576 761.739 98.7953 761.739C97.4165 761.739 96.3781 762.533 95.9418 763.659H95.9156C95.5752 762.507 94.6153 761.739 93.2889 761.739C92.0148 761.739 91.0898 762.455 90.7146 763.458H90.6797V761.896H89.5278V770.972ZM111.641 771.172C114.276 771.172 116.126 769.671 116.126 767.56V767.542C116.126 765.963 114.983 764.671 113.325 764.313V764.287C114.747 763.886 115.672 762.839 115.672 761.477V761.46C115.672 759.566 113.988 758.179 111.641 758.179C109.293 758.179 107.6 759.566 107.6 761.46V761.477C107.6 762.839 108.525 763.886 109.948 764.287V764.313C108.29 764.671 107.147 765.963 107.147 767.542V767.56C107.147 769.671 109.005 771.172 111.641 771.172ZM111.641 763.833C109.957 763.833 108.787 762.891 108.787 761.573V761.556C108.787 760.212 109.948 759.217 111.641 759.217C113.325 759.217 114.486 760.212 114.486 761.556V761.573C114.486 762.891 113.316 763.833 111.641 763.833ZM111.641 770.125C109.712 770.125 108.36 769.017 108.36 767.49V767.472C108.36 765.963 109.703 764.898 111.641 764.898C113.569 764.898 114.913 765.963 114.913 767.472V767.49C114.913 769.017 113.569 770.125 111.641 770.125ZM126.956 771.172C129.574 771.172 131.494 769.584 131.965 767.211L131.982 767.123H130.787L130.761 767.202C130.237 768.991 128.911 770.064 126.956 770.064C124.251 770.064 122.488 767.935 122.488 764.671V764.662C122.488 761.39 124.233 759.287 126.956 759.287C128.919 759.287 130.254 760.369 130.734 762.071L130.787 762.228H131.982L131.965 762.14C131.494 759.784 129.565 758.179 126.956 758.179C123.483 758.179 121.266 760.709 121.266 764.662V764.671C121.266 768.616 123.5 771.172 126.956 771.172ZM133.64 770.972H134.801V765.622C134.801 763.938 135.848 762.769 137.419 762.769C138.964 762.769 139.906 763.781 139.906 765.57V770.972H141.067V765.387C141.067 763.161 139.758 761.739 137.794 761.739C136.346 761.739 135.29 762.446 134.827 763.554H134.801V758.379H133.64V770.972ZM145.692 771.137C147.036 771.137 148.231 770.396 148.728 769.314H148.763V770.972H149.915V764.758C149.915 762.9 148.615 761.73 146.538 761.73C144.487 761.73 143.196 762.847 143.021 764.409L143.013 764.514H144.13L144.147 764.427C144.339 763.397 145.203 762.76 146.521 762.76C147.934 762.76 148.763 763.554 148.763 764.863V765.648L145.936 765.823C143.85 765.963 142.681 766.896 142.681 768.441V768.458C142.681 770.064 143.903 771.137 145.692 771.137ZM143.859 768.458V768.441C143.859 767.446 144.653 766.827 146.076 766.739L148.763 766.556V767.56C148.763 769.008 147.516 770.125 145.927 770.125C144.697 770.125 143.859 769.453 143.859 768.458ZM151.853 770.972H153.004V765.352C153.004 763.816 153.825 762.839 155.116 762.839C155.509 762.839 155.832 762.9 155.98 762.961V761.835C155.841 761.791 155.57 761.73 155.265 761.73C154.165 761.73 153.362 762.42 153.039 763.528H153.004V761.896H151.853V770.972ZM159.637 771.137C160.981 771.137 162.176 770.396 162.673 769.314H162.708V770.972H163.86V764.758C163.86 762.9 162.56 761.73 160.483 761.73C158.432 761.73 157.141 762.847 156.966 764.409L156.958 764.514H158.075L158.092 764.427C158.284 763.397 159.148 762.76 160.466 762.76C161.879 762.76 162.708 763.554 162.708 764.863V765.648L159.881 765.823C157.795 765.963 156.626 766.896 156.626 768.441V768.458C156.626 770.064 157.848 771.137 159.637 771.137ZM157.804 768.458V768.441C157.804 767.446 158.598 766.827 160.021 766.739L162.708 766.556V767.56C162.708 769.008 161.46 770.125 159.872 770.125C158.642 770.125 157.804 769.453 157.804 768.458ZM169.471 771.137C171.452 771.137 172.91 769.89 173.18 768.197L173.189 768.127H172.046L172.028 768.197C171.758 769.331 170.824 770.108 169.471 770.108C167.709 770.108 166.531 768.729 166.531 766.443V766.434C166.531 764.182 167.691 762.76 169.463 762.76C170.876 762.76 171.775 763.606 172.028 764.671L172.046 764.741H173.18L173.171 764.662C172.945 763.1 171.575 761.73 169.463 761.73C166.976 761.73 165.344 763.563 165.344 766.416V766.425C165.344 769.314 166.949 771.137 169.471 771.137ZM177.334 771.137C177.613 771.137 177.91 771.103 178.093 771.068V770.125C177.962 770.143 177.779 770.169 177.57 770.169C176.723 770.169 176.296 769.829 176.296 768.825V762.865H178.093V761.896H176.296V759.444H175.109V761.896H173.774V762.865H175.109V768.842C175.109 770.431 175.842 771.137 177.334 771.137ZM183.067 771.137C185.031 771.137 186.479 770.012 186.794 768.458L186.811 768.371H185.668L185.65 768.45C185.354 769.436 184.429 770.108 183.094 770.108C181.305 770.108 180.144 768.877 180.109 766.713H186.924V766.259C186.924 763.545 185.397 761.73 182.971 761.73C180.545 761.73 178.94 763.606 178.94 766.451V766.46C178.94 769.331 180.519 771.137 183.067 771.137ZM182.963 762.76C184.516 762.76 185.633 763.816 185.764 765.797H180.127C180.266 763.868 181.418 762.76 182.963 762.76ZM188.469 770.972H189.621V765.352C189.621 763.816 190.441 762.839 191.733 762.839C192.125 762.839 192.448 762.9 192.597 762.961V761.835C192.457 761.791 192.187 761.73 191.881 761.73C190.782 761.73 189.979 762.42 189.656 763.528H189.621V761.896H188.469V770.972ZM196.908 771.137C198.897 771.137 200.337 770.047 200.337 768.502V768.493C200.337 767.219 199.648 766.512 197.841 766.076L196.471 765.753C195.276 765.465 194.787 765.003 194.787 764.278V764.27C194.787 763.345 195.607 762.708 196.838 762.708C198.103 762.708 198.906 763.397 199.054 764.453L199.063 764.514H200.171L200.163 764.418C200.014 762.856 198.775 761.73 196.838 761.73C194.944 761.73 193.609 762.804 193.609 764.313V764.322C193.609 765.579 194.429 766.329 196.14 766.739L197.51 767.071C198.723 767.359 199.159 767.786 199.159 768.572V768.581C199.159 769.532 198.286 770.16 196.916 770.16C195.546 770.16 194.7 769.479 194.517 768.432L194.499 768.354H193.347L193.356 768.432C193.53 770.038 194.848 771.137 196.908 771.137Z" fill="white" fill-opacity="0.3"/>
<rect x="0.468477" y="0.405" width="418.063" height="906.19" rx="40.065" stroke="#3D4DE2" stroke-width="0.81"/>
</svg>
